<svg xmlns="http://www.w3.org/2000/svg" width="212" height="77" viewBox="0 0 212 77">
    <g fill="none" fill-rule="evenodd">
        <g fill="#231F20" fill-rule="nonzero">
            <path d="M62.5 31C83.763 31 101 48.237 101 69.5S83.763 108 62.5 108 24 90.763 24 69.5 41.237 31 62.5 31zm72.02 58.58c.66 0 3.28.06 5.32 1.3.28.18.86.56 1.46 1.18.64.68.98 1.3 1.16 1.62l-2.14.46c-.12-.22-.24-.42-.38-.62-.32-.44-.8-.88-1.26-1.16-.66-.42-2.08-1.02-4.08-1.02-.56 0-2.74.02-4.38 1.18-.16.1-.46.34-.8.72-.54.58-1.3 1.7-1.3 3.7 0 .58.06 2.18 1.12 3.56 1.26 1.64 3.34 2.02 3.94 2.12.567.083 1.161.097 1.47.1h.305c.846-.006 3.337-.103 4.905-1.82.34-.36.54-.66.78-1.08l2.12.44c-.46.82-.72 1.18-1 1.52-2.182 2.562-5.966 2.693-7.049 2.7h-.151c-2.8 0-4.44-.78-5.44-1.42-.36-.24-.64-.46-.96-.74-.2-.2-.64-.64-1.04-1.28-.5-.76-1.12-1.98-1.12-4.08 0-.68.04-2.54 1.24-4.2.2-.3.46-.62 1.02-1.12.5-.42 1.08-.82 1.64-1.1 1.82-.92 4.08-.96 4.62-.96zm84.566.42c1.018.01 1.437.071 1.994.22 1.9.5 2.98 1.98 2.98 3.92 0 .76-.16 2.74-2.28 3.62-.36.14-.74.26-1.54.38l5.22 5.98h-2.62l-4.78-5.66h-6.82v5.66h-2.02V90zm-12.666 0v1.74H195.4v4.2h10.74v1.68H195.4v4.76h11.54v1.74H193.4V90h13.02zm-15.06 0v1.68h-5.78v12.44h-2V91.68h-5.76V90h13.54zm-28.42 0l10.98 11.66-.06-11.66h1.92v14.12h-1.96l-11.06-11.68.04 11.68h-1.92V90h2.06zm-4.86 0v1.74h-11.02v4.2h10.74v1.68h-10.74v4.76h11.54v1.74h-13.54V90h13.02zm-94.766-3.781h-.08c-.574 0-2.979.042-4.915 1.016-.596.297-1.213.72-1.745 1.165-.595.53-.872.869-1.085 1.186-1.276 1.759-1.319 3.729-1.319 4.449 0 2.224.66 3.516 1.192 4.321.425.678.893 1.144 1.106 1.356.34.297.638.53 1.021.784 1.064.678 2.809 1.504 5.788 1.504.872 0 5.212 0 7.66-2.86.297-.36.574-.741 1.063-1.61l-2.255-.466c-.256.445-.468.763-.83 1.144-1.577 1.72-4.032 1.906-5.055 1.925h-.646c-.35-.006-.889-.027-1.405-.103-.639-.106-2.852-.508-4.192-2.246-1.128-1.461-1.191-3.156-1.191-3.77 0-2.119.808-3.305 1.383-3.92.361-.402.68-.656.85-.762 1.745-1.228 4.064-1.25 4.66-1.25 2.128 0 3.638.636 4.34 1.08.49.297 1 .763 1.341 1.23.149.211.277.423.404.656l2.277-.487c-.192-.34-.553-.996-1.234-1.716-.638-.657-1.256-1.06-1.553-1.25-2.096-1.268-4.766-1.37-5.58-1.376zM218.98 91.68h-7.76v5.12h7.172c1.095-.007 2.331-.096 3.068-1.04.2-.24.52-.72.52-1.54 0-.26-.02-.8-.36-1.38-.6-1.06-1.54-1.16-2.64-1.16zM63.149 62.471c-3.553 0-5.745 1.504-6.766 2.458-.383.36-.68.72-.979 1.165-1.127 1.695-1.234 3.453-1.234 4.173 0 2.288.958 3.855 1.468 4.533.915 1.25 3.085 3.326 7.128 3.326 2.745 0 4.702-.932 5.553-1.525.362-.254.681-.55 1-.869v2.055h1.851v-7.88h-8.404v1.78h6.617c-.106.74-.192 1.25-.596 1.927-1.127 1.843-3.468 2.733-5.553 2.733-.787 0-3.66-.127-5.425-2.267-.873-1.038-1.362-2.563-1.362-3.898 0-2.627 1.532-4.575 3.979-5.423 1.234-.423 2.404-.466 2.872-.466 2.553 0 4.17 1.102 4.893 1.758.447.424.66.784.809.996l2.085-.635c-.404-.742-.553-.911-.894-1.271-.34-.382-.936-.954-2.02-1.504-2.128-1.102-4.171-1.166-5.022-1.166zm71.291-.811c.8 0 2.72.06 4.72 1.1 1.02.52 1.58 1.06 1.9 1.42.32.34.46.5.84 1.2l-1.96.6c-.14-.2-.34-.54-.76-.94-.68-.62-2.2-1.66-4.6-1.66-.44 0-1.54.04-2.7.44-2.3.8-3.74 2.64-3.74 5.12 0 1.26.46 2.7 1.28 3.68 1.66 2.02 4.36 2.14 5.1 2.14 1.96 0 4.16-.84 5.22-2.58.38-.64.46-1.12.56-1.82h-6.22v-1.68h7.9v7.44h-1.74v-1.94c-.3.3-.6.58-.94.82-.8.56-2.64 1.44-5.22 1.44-3.8 0-5.84-1.96-6.7-3.14-.48-.64-1.38-2.12-1.38-4.28 0-.68.1-2.34 1.16-3.94.28-.42.56-.76.92-1.1.96-.9 3.02-2.32 6.36-2.32zm66.14.34v1.74h-11.02v4.2h10.74v1.68h-10.74v4.76h11.54v1.74h-13.54V62h13.02zm21.66 0l5.46 6.92 5.58-6.92h2.56l-7.16 8.66v5.46h-1.98v-5.5L219.66 62h2.58zm-69.44 0l7.24 14.12h-2.32L156 72.64h-8.68l-1.72 3.48h-2.26L150.66 62h2.14zm23.84 0v12.4h9.38v1.72h-11.38V62h2zm-12.92 0v12.4h9.38v1.72h-11.38V62h2zm49.526 0c1.018.01 1.437.071 1.994.22 1.9.5 2.98 1.98 2.98 3.92 0 .76-.16 2.74-2.28 3.62-.36.14-.74.26-1.54.38l5.22 5.98H217l-4.78-5.66h-6.82v5.66h-2.02V62zm-61.566 2.02l-3.52 7h6.98l-3.46-7zm61.46-.34h-7.76v5.12h7.172c1.095-.007 2.331-.096 3.068-1.04.2-.24.52-.72.52-1.54 0-.26-.02-.8-.36-1.38-.6-1.06-1.54-1.16-2.64-1.16zM64.064 39h-2.277L54 53.956h2.404l1.83-3.686h9.234l1.83 3.686h2.468L64.064 39zm-1.192 2.14l3.681 7.414h-7.425l3.744-7.414zM173.42 34v1.68h-5.78v12.44h-2V35.68h-5.76V34h13.54zm-20.194 0c1.018.01 1.437.071 1.994.22 1.9.5 2.98 1.98 2.98 3.92 0 .76-.16 2.74-2.28 3.62-.36.14-.74.26-1.54.38l5.22 5.98h-2.62l-4.78-5.66h-6.82v5.66h-2.02V34zm-18.766 0l7.24 14.12h-2.32l-1.72-3.48h-8.68l-1.72 3.48H125L132.32 34h2.14zm-1.12 2.02l-3.52 7h6.98l-3.46-7zm19.78-.34h-7.76v5.12h7.172c1.095-.007 2.331-.096 3.068-1.04.2-.24.52-.72.52-1.54 0-.26-.02-.8-.36-1.38-.6-1.06-1.54-1.16-2.64-1.16z" transform="translate(-24.000000, -31.000000)"/>
        </g>
    </g>
</svg>
