<svg xmlns="http://www.w3.org/2000/svg" width="255" height="28" viewBox="0 0 255 28">
    <g fill="none" fill-rule="evenodd">
        <g fill="#000" fill-rule="nonzero">
            <path d="M74 4311c7.732 0 14 6.268 14 14s-6.268 14-14 14-14-6.268-14-14 6.268-14 14-14zm.417 20.239h-.06c-.21 0-1.083.015-1.787.37-.217.109-.44.264-.634.426-.217.193-.317.317-.395.433-.464.642-.48 1.361-.48 1.624 0 .812.24 1.284.434 1.578.155.247.325.417.402.495.124.108.232.193.371.286.387.247 1.021.549 2.104.549.317 0 1.895 0 2.784-1.044.108-.132.209-.27.387-.588l-.82-.17c-.093.162-.17.278-.302.418-.573.627-1.465.695-1.837.703h-.235c-.127-.003-.323-.01-.51-.038-.233-.039-1.037-.186-1.524-.82-.41-.534-.433-1.152-.433-1.377 0-.773.294-1.206.502-1.43.132-.147.248-.24.31-.279.634-.448 1.477-.456 1.693-.456.774 0 1.323.232 1.578.394.178.109.364.279.487.449.054.077.1.155.147.24l.828-.178c-.07-.124-.201-.364-.449-.627-.232-.24-.456-.386-.564-.456-.737-.447-1.668-.497-1.997-.502zM242.01 4319c.628.006 2.618.09 4.182 1.04.224.144.688.448 1.168.944.512.544.784 1.04.928 1.296l-1.712.368c-.096-.176-.192-.336-.304-.496-.256-.352-.64-.704-1.008-.928-.528-.336-1.664-.816-3.264-.816-.448 0-2.192.016-3.504.944-.128.08-.368.272-.64.576-.432.464-1.04 1.36-1.04 2.96 0 .464.048 1.744.896 2.848 1.008 1.312 2.672 1.616 3.152 1.696.435.064.89.077 1.146.08h.29c.692-.006 2.664-.093 3.908-1.456.272-.288.432-.528.624-.864l1.696.352c-.368.656-.576.944-.8 1.216-1.84 2.16-5.104 2.16-5.76 2.16-2.24 0-3.552-.624-4.352-1.136-.288-.192-.512-.368-.768-.592-.16-.16-.512-.512-.832-1.024-.4-.608-.896-1.584-.896-3.264 0-.544.032-2.032.992-3.36.16-.24.368-.496.816-.896.4-.336.864-.656 1.312-.88 1.456-.736 3.264-.768 3.696-.768zm-94.138.064c.64 0 2.176.048 3.776.88.816.416 1.264.848 1.52 1.136.256.272.368.4.672.96l-1.568.48c-.112-.16-.272-.432-.608-.752-.544-.496-1.76-1.328-3.68-1.328-.352 0-1.232.032-2.16.352-1.84.64-2.992 2.112-2.992 4.096 0 1.008.368 2.16 1.024 2.944 1.328 1.616 3.488 1.712 4.08 1.712 1.568 0 3.328-.672 4.176-2.064.304-.512.368-.896.448-1.456h-4.976v-1.344h6.32v5.952h-1.392v-1.552c-.24.24-.48.464-.752.656-.64.448-2.112 1.152-4.176 1.152-3.04 0-4.672-1.568-5.36-2.512-.384-.512-1.104-1.696-1.104-3.424 0-.544.08-1.872.928-3.152.224-.336.448-.608.736-.88.768-.72 2.416-1.856 5.088-1.856zm62.848.272c.96 0 1.312.048 1.792.176 1.52.4 2.384 1.584 2.384 3.136 0 .608-.128 2.192-1.824 2.896-.288.112-.592.208-1.232.304l4.176 4.784h-2.096l-3.824-4.528h-5.456v4.528h-1.616v-11.296zm-92.336 0c.96 0 1.312.048 1.792.176 1.52.4 2.384 1.584 2.384 3.136 0 .608-.128 2.192-1.824 2.896-.288.112-.592.208-1.232.304l4.176 4.784h-2.096l-3.824-4.528h-5.456v4.528h-1.616v-11.296zm191.008 0c.96 0 1.312.048 1.792.176 1.52.4 2.384 1.584 2.384 3.136 0 .608-.128 2.192-1.824 2.896-.288.112-.592.208-1.232.304l4.176 4.784h-2.096l-3.824-4.528h-5.456v4.528h-1.616v-11.296zm-174.656 0v1.344h-4.624v9.952h-1.6v-9.952h-4.608v-1.344h10.832zm164.72 0v1.392h-8.816v3.36h8.592v1.344h-8.592v3.808h9.232v1.392H289.04v-11.296h10.416zm-195.888 0l5.792 11.296h-1.856l-1.376-2.784h-6.944l-1.376 2.784H96l5.856-11.296h1.712zm58.992 0l5.792 11.296h-1.856l-1.376-2.784h-6.944l-1.376 2.784h-1.808l5.856-11.296h1.712zm124.848 0v1.344h-4.624v9.952h-1.6v-9.952h-4.608v-1.344h10.832zm-116.112 0v9.92h7.504v1.376h-9.104v-11.296h1.6zm10.336 0v9.92h7.504v1.376h-9.104v-11.296h1.6zm19.152 0v1.392h-8.816v3.36h8.592v1.344h-8.592v3.808h9.232v1.392h-10.832v-11.296h10.416zm63.888 0l8.784 9.328-.048-9.328h1.536v11.296h-1.568l-8.848-9.344.032 9.344h-1.536v-11.296h1.648zm-3.888 0v1.392h-8.816v3.36h8.592v1.344h-8.592v3.808h9.232v1.392h-10.832v-11.296h10.416zm-42.672 0l4.368 5.536 4.464-5.536h2.048l-5.728 6.928v4.368h-1.584v-4.4l-5.632-6.896h2.064zm-143.787 3.233c-1.291 0-2.088.549-2.459.897-.139.132-.247.263-.356.425-.41.62-.448 1.261-.448 1.524 0 .835.348 1.407.533 1.655.333.456 1.122 1.214 2.591 1.214.998 0 1.71-.34 2.019-.557.131-.092.247-.2.363-.317v.75h.673v-2.877h-3.055v.65h2.405c-.038.27-.07.456-.216.704-.41.673-1.26.998-2.019.998-.286 0-1.33-.047-1.972-.828-.317-.379-.495-.936-.495-1.423 0-.959.557-1.67 1.447-1.98.448-.155.873-.17 1.044-.17.928 0 1.515.402 1.778.642.163.155.24.286.294.363l.758-.232c-.147-.27-.2-.332-.325-.464-.123-.139-.34-.348-.734-.549-.774-.402-1.516-.425-1.826-.425zm87.339-1.617l-2.816 5.6h5.584l-2.768-5.6zm-58.992 0l-2.816 5.6h5.584l-2.768-5.6zm108.16-.272h-6.208v4.096h5.757c.871-.007 1.85-.082 2.435-.832.16-.192.416-.576.416-1.232 0-.208-.016-.64-.288-1.104-.48-.848-1.232-.928-2.112-.928zm-92.336 0h-6.208v4.096h5.757c.871-.007 1.85-.082 2.435-.832.16-.192.416-.576.416-1.232 0-.208-.016-.64-.288-1.104-.48-.848-1.232-.928-2.112-.928zm191.008 0h-6.208v4.096h5.757c.871-.007 1.85-.082 2.435-.832.16-.192.416-.576.416-1.232 0-.208-.016-.64-.288-1.104-.48-.848-1.232-.928-2.112-.928zM74.658 4314h-.827L71 4319.46h.874l.665-1.346h3.356l.666 1.346h.897l-2.8-5.46zm-.433.781l1.338 2.707h-2.7l1.362-2.707z" transform="translate(-60.000000, -4311.000000)"/>
        </g>
    </g>
</svg>
