<svg xmlns="http://www.w3.org/2000/svg" xmlns:xlink="http://www.w3.org/1999/xlink" width="29" height="35" viewBox="0 0 29 35">
    <defs>
        <path id="ex11g08d1a" d="M0 0.012L28.971 0.012 28.971 26.341 0 26.341z"/>
    </defs>
    <g fill="none" fill-rule="evenodd">
        <g>
            <g>
                <path fill="#000" d="M10.646 4.89l3.724-3.724.519-.519c.344-.345-.19-.883-.535-.534L10.63 3.836l-.519.519c-.344.34.19.879.535.534" transform="translate(-40.000000, -499.000000) translate(40.000000, 499.000000)"/>
                <path fill="#000" d="M18.889 4.353L15.166.63l-.52-.519c-.344-.344-.882.19-.533.534l3.723 3.723.519.52c.344.348.878-.19.534-.535" transform="translate(-40.000000, -499.000000) translate(40.000000, 499.000000)"/>
                <path fill="#000" d="M14.985 21.629V2.976c0-.855.034-1.715 0-2.57V.37c0-.495-.97-.495-.97 0v18.653c0 .855-.034 1.715 0 2.57v.035c0 .495.97.495.97 0" transform="translate(-40.000000, -499.000000) translate(40.000000, 499.000000)"/>
                <g transform="translate(-40.000000, -499.000000) translate(40.000000, 499.000000) translate(0.000000, 8.000000)">
                    <mask id="ynmylzgxlb" fill="#fff">
                        <use xlink:href="#ex11g08d1a"/>
                    </mask>
                    <path fill="#000" d="M7.342.021H5.416c-.717 0-1.473-.054-2.178.095C2.01.378.925 1.256.395 2.416.115 3.035 0 3.689 0 4.367v17.776c.004 1.16.472 2.288 1.308 3.076.767.721 1.768 1.117 2.812 1.12h18.708c.671 0 1.346.005 2.017 0 1.028-.003 2.01-.383 2.778-1.085.859-.787 1.338-1.936 1.346-3.107.004-.725 0-1.45 0-2.175V4.375c0-.666-.107-1.305-.376-1.912-.506-1.16-1.576-2.046-2.785-2.332-.717-.168-1.484-.11-2.217-.11h-1.845c-.495 0-.495.784 0 .784h1.883c.68 0 1.412-.066 2.076.11 1.085.29 1.99 1.144 2.336 2.241.134.435.165.87.165 1.317v17.674c-.004 1.046-.468 2.037-1.274 2.688-.614.486-1.362.72-2.125.72H4.124c-.86 0-1.688-.32-2.317-.924-.675-.654-1.044-1.552-1.047-2.5-.004-.76 0-1.52 0-2.277V5.508c0-.866-.077-1.78.249-2.602.437-1.09 1.427-1.862 2.55-2.062.277-.047.557-.039.837-.039h2.942c.499 0 .499-.784.004-.784" mask="url(#ynmylzgxlb)"/>
                </g>
            </g>
        </g>
    </g>
</svg>
