<svg xmlns="http://www.w3.org/2000/svg" xmlns:xlink="http://www.w3.org/1999/xlink" width="28" height="33" viewBox="0 0 28 33">
    <defs>
        <filter id="lyutwk8f6a" color-interpolation-filters="auto">
            <feColorMatrix in="SourceGraphic" values="0 0 0 0 0.376471 0 0 0 0 0.513725 0 0 0 0 0.878431 0 0 0 1.000000 0"/>
        </filter>
        <path id="j4s2r16kmb" d="M0 0.011L27.972 0.011 27.972 24.39 0 24.39z"/>
    </defs>
    <g fill="none" fill-rule="evenodd">
        <g filter="url(#lyutwk8f6a)" transform="translate(-51.000000, -124.000000)">
            <g>
                <path fill="#000" d="M9.646 4.89l3.724-3.724.519-.519c.344-.345-.19-.883-.535-.534L9.63 3.836l-.519.519c-.344.34.19.879.535.534" transform="translate(51.000000, 124.000000)"/>
                <path fill="#000" d="M18.889 4.353L15.166.63l-.52-.519c-.344-.344-.882.19-.533.534l3.723 3.723.519.52c.344.348.878-.19.534-.535" transform="translate(51.000000, 124.000000)"/>
                <path fill="#000" d="M13.985 19.663V2.706c0-.778.034-1.56 0-2.337V.337c0-.45-.97-.45-.97 0v16.957c0 .778-.034 1.56 0 2.337v.032c0 .45.97.45.97 0" transform="translate(51.000000, 124.000000)"/>
                <g transform="translate(51.000000, 124.000000) translate(0.000000, 8.000000)">
                    <mask id="ugqwpfyl2c" fill="#fff">
                        <use xlink:href="#j4s2r16kmb"/>
                    </mask>
                    <path fill="#000" d="M7.089.02h-1.86c-.692 0-1.422-.05-2.103.087C1.94.35.893 1.163.38 2.237.111 2.81 0 3.417 0 4.044v16.459c.004 1.074.456 2.119 1.263 2.848.74.668 1.707 1.034 2.715 1.038H22.04c.648 0 1.3.003 1.948 0 .992-.004 1.94-.356 2.681-1.005.83-.73 1.293-1.793 1.3-2.878.004-.671 0-1.342 0-2.014V4.051c0-.617-.104-1.208-.363-1.77-.489-1.075-1.522-1.895-2.689-2.16-.692-.156-1.433-.101-2.14-.101h-1.782c-.478 0-.478.726 0 .726h1.819c.655 0 1.363-.062 2.003.101 1.048.269 1.922 1.06 2.256 2.076.13.402.16.805.16 1.219v16.364c-.005.969-.453 1.887-1.23 2.49-.593.45-1.315.667-2.052.667H3.98c-.83 0-1.63-.298-2.237-.856C1.093 22.2.737 21.37.734 20.492c-.004-.704 0-1.408 0-2.108V5.1c0-.802-.075-1.648.24-2.41C1.396 1.682 2.352.967 3.437.782c.267-.044.537-.036.807-.036h2.841c.482 0 .482-.726.004-.726" mask="url(#ugqwpfyl2c)"/>
                </g>
            </g>
        </g>
    </g>
</svg>
