<svg xmlns="http://www.w3.org/2000/svg" width="24" height="25" viewBox="0 0 24 25">
    <g fill="none" fill-rule="evenodd">
        <g fill="#000" fill-rule="nonzero">
            <path d="M108.913 4535.264c2.244 0 4.279-.522 6.105-1.567 1.826-1.045 3.261-2.47 4.306-4.274 1.046-1.804 1.568-3.784 1.568-5.94 0-2.178-.522-4.174-1.567-5.99-1.046-1.814-2.481-3.244-4.307-4.29-1.826-1.044-3.861-1.567-6.105-1.567-2.222 0-4.24.523-6.055 1.568-1.816 1.045-3.246 2.475-4.29 4.29-1.046 1.815-1.568 3.811-1.568 5.99 0 2.155.522 4.135 1.567 5.94 1.046 1.803 2.476 3.228 4.29 4.273 1.816 1.045 3.834 1.567 6.056 1.567zm0-1.188c-1.98 0-3.79-.473-5.428-1.419-1.64-.946-2.927-2.227-3.861-3.844-.935-1.617-1.403-3.394-1.403-5.33 0-1.958.468-3.75 1.403-5.379.934-1.628 2.222-2.915 3.86-3.86 1.64-.947 3.449-1.42 5.429-1.42 2.002 0 3.823.473 5.462 1.42 1.638.945 2.925 2.232 3.86 3.86.936 1.628 1.403 3.421 1.403 5.38 0 1.935-.468 3.717-1.403 5.345-.934 1.628-2.222 2.91-3.86 3.845-1.64.935-3.46 1.402-5.462 1.402zm.033-5.049c.836 0 1.507-.236 2.013-.71.506-.472.759-1.083.759-1.83v-.232c0-.22-.11-.33-.33-.33l-.528-.033c-.22 0-.33.11-.33.33v.33c0 .418-.143.76-.429 1.023-.286.264-.671.396-1.155.396s-.869-.132-1.155-.396c-.286-.264-.429-.605-.429-1.023v-6.006c0-.418.143-.753.429-1.006.286-.253.671-.38 1.155-.38s.869.127 1.155.38c.286.253.429.588.429 1.006v.33c0 .22.11.33.33.33l.528-.033c.22 0 .33-.11.33-.33v-.23c0-.749-.253-1.354-.759-1.816-.506-.462-1.177-.693-2.013-.693-.814 0-1.468.226-1.963.677-.496.45-.743 1.061-.743 1.831v5.874c0 .77.248 1.386.743 1.848.495.462 1.149.693 1.963.693z" transform="translate(-97.000000, -4511.000000)"/>
        </g>
    </g>
</svg>
