<svg xmlns="http://www.w3.org/2000/svg" xmlns:xlink="http://www.w3.org/1999/xlink" width="31" height="31" viewBox="0 0 31 31">
    <defs>
        <filter id="zwxu7uv8ra" color-interpolation-filters="auto">
            <feColorMatrix in="SourceGraphic" values="0 0 0 0 0.529412 0 0 0 0 0.529412 0 0 0 0 0.529412 0 0 0 1.000000 0"/>
        </filter>
        <path id="epg95e4mdb" d="M0 0.044L30.956 0.044 30.956 31 0 31z"/>
    </defs>
    <g fill="none" fill-rule="evenodd">
        <g filter="url(#zwxu7uv8ra)" transform="translate(-169.000000, -503.000000)">
            <g>
                <g transform="translate(169.000000, 503.000000)">
                    <mask id="g4t2d0uqjc" fill="#fff">
                        <use xlink:href="#epg95e4mdb"/>
                    </mask>
                    <path fill="#878787" d="M27.38 29.933H3.576c-1.228 0-2.242-.854-2.455-2.029l7.525-9.713c.267-.32.64-.534 1.068-.587.427-.054.854.106 1.174.427l2.829 2.828c1.014 1.014 2.615 1.014 3.629 0l.96-.96c.534-.534 1.442-.588 2.029-.054l9.553 8.166c-.32 1.068-1.334 1.922-2.508 1.922zM3.576 1.112H27.38c1.388 0 2.508 1.12 2.508 2.508v23.003l-8.913-7.632c-1.014-.854-2.508-.8-3.469.107l-.96 1.014c-.588.587-1.548.587-2.082 0l-2.829-2.829c-.534-.533-1.227-.8-1.975-.747-.747.054-1.387.427-1.868 1.014l-6.725 8.7V3.62c0-1.388 1.121-2.508 2.509-2.508zm27.38 2.508c0-1.975-1.601-3.576-3.576-3.576H3.576C1.601.044 0 1.645 0 3.62V27.691c0 .107 0 .213.053.32C.32 29.72 1.815 31 3.576 31H27.38c1.761 0 3.256-1.28 3.523-2.989.053-.107.053-.213.053-.32V3.62z" mask="url(#g4t2d0uqjc)"/>
                </g>
                <path fill="#878787" d="M20 6.143c1.6 0 2.857 1.257 2.857 2.857 0 1.6-1.257 2.857-2.857 2.857-1.6 0-2.857-1.257-2.857-2.857 0-1.6 1.257-2.857 2.857-2.857M20 13c2.229 0 4-1.771 4-4s-1.771-4-4-4-4 1.771-4 4 1.771 4 4 4" transform="translate(169.000000, 503.000000)"/>
            </g>
        </g>
    </g>
</svg>
