<svg xmlns="http://www.w3.org/2000/svg" width="19" height="16" viewBox="0 0 19 16">
    <g fill="none" fill-rule="evenodd">
        <g fill="red">
            <path d="M104.814 409.89l-7.3 7.11-7.302-7.11c-1.616-1.58-1.616-4.125 0-5.705.778-.76 1.825-1.17 2.902-1.17 1.078 0 2.125.41 2.903 1.17l1.257 1.229c.12.117.299.117.419 0l1.256-1.229c1.616-1.58 4.22-1.58 5.835 0 1.616 1.58 1.616 4.125.03 5.705m.763-6.45c-.936-.919-2.152-1.41-3.494-1.41-1.341 0-2.557.491-3.493 1.41l-1.06 1.043-1.092-1.073c-.936-.92-2.153-1.41-3.494-1.41-1.341 0-2.558.49-3.494 1.41-1.933 1.9-1.933 4.965 0 6.835l7.83 7.663c.062.061.124.092.218.092s.156-.03.218-.092l7.83-7.663c1.934-1.87 1.934-4.935.03-6.804" transform="translate(-88.000000, -402.000000)"/>
        </g>
    </g>
</svg>
