<svg xmlns="http://www.w3.org/2000/svg" xmlns:xlink="http://www.w3.org/1999/xlink" width="874" height="329" viewBox="0 0 874 329">
    <defs>
        <path id="6pv5jzbdka" d="M0 0L136.439 0 136.439 150.114 0 150.114z"/>
        <path id="3bkwzdthec" d="M0 329L874 329 874 0 0 0z"/>
        <path id="kaal6wozpe" d="M0 0L20.138 132 121 132 100.862 0z"/>
        <path id="5sxd7ls7ag" d="M0 0L20.138 132 121 132 100.862 0z"/>
        <path id="1q1ncyjzji" d="M0 0L20.138 132 121 132 100.862 0z"/>
        <path id="pmand3skfk" d="M0 0L20.138 132 121 132 100.862 0"/>
        <path id="1plmhogz2m" d="M0 0L20.138 132 121 132 100.862 0z"/>
        <path id="ezr4zmd59o" d="M0 0L20.138 132 121 132 100.862 0z"/>
        <path id="vrr0wdz9nq" d="M0 0L20.138 132 121 132 100.862 0z"/>
        <path id="005u5c88qs" d="M0 0L20.138 132 121 132 100.862 0z"/>
        <path id="g68opjdgau" d="M0 0L20.138 132 121 132 100.862 0"/>
        <path id="rbj7qx266w" d="M0 0L20.138 132 121 132 100.862 0z"/>
        <path id="tk9bl22x5y" d="M0 329L874 329 874 0 0 0z"/>
    </defs>
    <g fill="none" fill-rule="evenodd">
        <g>
            <g>
                <path fill="#3A8EC1" d="M461 36.047L452.779 47 451 45.953 459.221 35z" transform="translate(214.000000, -115.000000) translate(-214.000000, 115.000000)"/>
                <g transform="translate(214.000000, -115.000000) translate(-214.000000, 115.000000)">
                    <path fill="#3A8EC1" d="M331.207 34.497c-.208 1.975-.101 3.99.348 5.94.126.483.23.973.397 1.447.079.238.147.479.234.714l.273.702c.085.236.19.464.297.691l.316.685.358.664.178.333c.063.109.132.214.198.322 1.044 1.722 2.35 3.3 3.908 4.596l.292.244c.094.077.2.174.283.23.17.133.362.25.554.36.387.22.807.378 1.191.456.39.086.71.04.858-.043.084-.033.132-.108.205-.187.053-.083.089-.175.107-.31.094-.54-.317-1.613-.696-2.484-.394-.877-.909-1.706-1.517-2.172-.303-.23-.601-.362-.92-.385-.166-.004-.319-.014-.47.027-.152.036-.306.095-.457.178-.301.17-.59.438-.808.761-.226.328-.365.672-.458 1.092-.18.827-.107 1.78.043 2.781.152 1.016.342 2.034.56 3.041.443 2.016 1.02 4.005 1.724 5.95l-2.029.689c-.735-2.03-1.336-4.104-1.798-6.208-.228-1.054-.425-2.109-.585-3.178-.156-1.075-.283-2.257-.019-3.503.07-.31.159-.614.289-.931.128-.31.293-.604.481-.882.38-.555.883-1.05 1.523-1.412.321-.178.676-.319 1.054-.405l.286-.052c.097-.012.195-.02.292-.027.195-.013.383.003.574.009.775.058 1.503.4 2.048.822.553.425.966.923 1.308 1.427.342.506.614 1.026.85 1.548.235.53.431 1.034.612 1.592.17.564.342 1.207.245 1.991-.05.388-.19.807-.432 1.167-.246.343-.565.678-.975.882-.395.205-.83.32-1.22.337-.203.023-.381.002-.573 0-.176-.024-.364-.037-.529-.077-.681-.14-1.283-.382-1.837-.693-.276-.157-.545-.323-.8-.52-.138-.096-.229-.183-.343-.275l-.326-.273c-1.744-1.454-3.196-3.207-4.352-5.116-.073-.12-.15-.236-.219-.357l-.198-.368-.396-.737-.35-.757c-.12-.252-.235-.505-.33-.766l-.301-.777c-.096-.26-.173-.527-.26-.791-.182-.525-.302-1.067-.44-1.604-.497-2.162-.62-4.406-.385-6.62l2.137.232zM242.802 57.09c2.724 3.243 5.938 6.104 9.505 8.463l-1.214 1.716c-3.739-2.472-7.104-5.469-9.96-8.869l1.669-1.31zM176.874 109.904c3.634 1.874 7.445 3.43 11.37 4.639l-.653 1.98c-4.049-1.247-7.98-2.85-11.73-4.785l1.013-1.834zM553.242 75.392L544.432 79.904 543.426 78.067 552.236 73.555z"/>
                    <g transform="translate(246.898904, 178.886041)">
                        <mask id="s8qfexmmzb" fill="#fff">
                            <use xlink:href="#6pv5jzbdka"/>
                        </mask>
                        <path fill="#E9EFF4" d="M136.439 150.114L136.439 14.434 90.433 14.434 90.433 0 27.218 0 27.218 14.434 0 14.434 0 150.114z" mask="url(#s8qfexmmzb)"/>
                    </g>
                    <mask id="12dyhcgved" fill="#fff">
                        <use xlink:href="#3bkwzdthec"/>
                    </mask>
                    <path fill="#E9EFF4" d="M256.381 197.226L262.703 197.226 262.703 134.565 256.381 134.565zM286.057 188.565L329.43 188.565 329.43 165.811 286.057 165.811zM611.33 329L670.155 329 670.155 197.396 611.33 197.396z" mask="url(#12dyhcgved)"/>
                    <path fill="#E9EFF4" d="M626.014 204.697L663.24 204.697 663.24 153.754 626.014 153.754z" mask="url(#12dyhcgved)"/>
                    <path fill="#E9EFF4" d="M651.827 156.301L659.202 156.301 659.202 118.603 651.827 118.603zM209.895 329L253.443 329 253.443 218.622 209.895 218.622zM580.465 329L580.465 186.669 555.039 162.081 555.039 123.707 526.847 123.707 526.847 102.926 526.847 66.301 513.656 66.301 513.656 329z" mask="url(#12dyhcgved)"/>
                    <path fill="#E9EFF4" d="M549.629 208.649L580.885 208.649 580.885 201.471 601.606 201.471 601.606 227.753 614.425 227.753 614.425 329 536.627 329zM528.124 329L492.805 329 492.805 116.506 526.847 116.506zM358.275 193.32L383.385 193.32 383.385 184.83 358.275 184.83zM379.171 329L415.87 329 415.87 206.905 379.171 206.905z" mask="url(#12dyhcgved)"/>
                    <path fill="#E9EFF4" d="M414.641 329L469.077 329 469.077 136.093 414.641 136.093z" mask="url(#12dyhcgved)"/>
                    <path fill="#CCD9E2" d="M461.35 329L497.875 329 497.875 164.112 461.35 164.112z" mask="url(#12dyhcgved)"/>
                    <path fill="#E9EFF4" d="M426.231 137.452L457.663 137.452 457.663 126.414 426.231 126.414zM417.099 137.452L419.733 137.452 419.733 98.905 417.099 98.905zM642.042 59.071c0 4.822 4.042 8.731 9.029 8.731 4.986 0 9.028-3.909 9.028-8.73 0-4.823-4.042-8.732-9.028-8.732-4.987 0-9.03 3.91-9.03 8.731" mask="url(#12dyhcgved)"/>
                    <path fill="#E9EFF4" d="M620.222 52.765c0 6.698 5.615 12.127 12.54 12.127 6.926 0 12.54-5.43 12.54-12.127 0-6.697-5.614-12.127-12.54-12.127-6.925 0-12.54 5.43-12.54 12.127" mask="url(#12dyhcgved)"/>
                    <path fill="#E9EFF4" d="M612.698 61.982c0 3.214 2.695 5.82 6.02 5.82 3.324 0 6.019-2.606 6.019-5.82 0-3.215-2.695-5.821-6.02-5.821-3.324 0-6.019 2.606-6.019 5.82" mask="url(#12dyhcgved)"/>
                    <path fill="#E9EFF4" d="M650.059 67.803h-31.342s10.534-13.825 11.036-14.068c.501-.242 20.314 11.157 20.314 11.157l-.008 2.91zM194.717 52.038c0 4.822 4.042 8.73 9.028 8.73 4.987 0 9.03-3.908 9.03-8.73 0-4.822-4.043-8.732-9.03-8.732-4.986 0-9.028 3.91-9.028 8.732" mask="url(#12dyhcgved)"/>
                    <path fill="#E9EFF4" d="M172.897 45.732c0 6.697 5.614 12.127 12.54 12.127 6.925 0 12.54-5.43 12.54-12.127 0-6.698-5.615-12.127-12.54-12.127-6.926 0-12.54 5.43-12.54 12.127" mask="url(#12dyhcgved)"/>
                    <path fill="#E9EFF4" d="M165.373 54.948c0 3.215 2.695 5.821 6.02 5.821 3.323 0 6.018-2.606 6.018-5.821s-2.695-5.82-6.019-5.82c-3.324 0-6.02 2.605-6.02 5.82" mask="url(#12dyhcgved)"/>
                    <path fill="#E9EFF4" d="M202.733 60.769h-31.341s10.534-13.825 11.035-14.067c.502-.243 20.315 11.156 20.315 11.156l-.009 2.911zM514.057 13.751c0 3.598 3.016 6.514 6.736 6.514 3.72 0 6.736-2.916 6.736-6.514 0-3.597-3.016-6.514-6.736-6.514-3.72 0-6.736 2.917-6.736 6.514" mask="url(#12dyhcgved)"/>
                    <path fill="#E9EFF4" d="M497.78 9.047c0 4.996 4.188 9.047 9.355 9.047 5.166 0 9.355-4.05 9.355-9.047C516.49 4.05 512.3 0 507.135 0c-5.167 0-9.356 4.05-9.356 9.047" mask="url(#12dyhcgved)"/>
                    <path fill="#E9EFF4" d="M492.166 15.923c0 2.398 2.01 4.342 4.49 4.342 2.48 0 4.491-1.944 4.491-4.342 0-2.399-2.01-4.343-4.49-4.343-2.48 0-4.491 1.944-4.491 4.343" mask="url(#12dyhcgved)"/>
                    <path fill="#E9EFF4" d="M520.038 20.265h-23.381s7.858-10.314 8.232-10.494c.374-.181 15.156 8.323 15.156 8.323l-.007 2.171z" mask="url(#12dyhcgved)"/>
                    <path fill="#C4ACD1" d="M633.08 326.932L633.08 229.997 631.306 234.5 627.314 326.932z" mask="url(#12dyhcgved)"/>
                    <path fill="#C4ACD1" d="M616.08 227.418c5.586 7.127 16.69 8.084 16.69 8.084s2.05-10.598-3.537-17.725c-5.585-7.126-16.69-8.083-16.69-8.083s-2.048 10.598 3.538 17.724" mask="url(#12dyhcgved)"/>
                    <path fill="#7E508E" d="M623.281 325.98c.883-23.75-6.72-73.918-6.72-73.918l-.817 3.557s6.638 48.163 3.224 70.973c-.156 1.042 4.274.441 4.313-.612" mask="url(#12dyhcgved)"/>
                    <path fill="#7E508E" d="M603.551 251.936c4.987 4.739 13.402 4.277 13.402 4.277s.33-8.145-4.656-12.884c-4.986-4.739-13.402-4.277-13.402-4.277s-.33 8.145 4.656 12.884" mask="url(#12dyhcgved)"/>
                    <path fill="#C68FC6" d="M635.636 325.862c-.974-26.19 7.41-81.506 7.41-81.506l.9 3.922s-7.319 53.107-3.554 78.258c.172 1.15-4.713.487-4.756-.674" mask="url(#12dyhcgved)"/>
                    <path fill="#C68FC6" d="M657.391 244.217c-5.498 5.225-14.778 4.716-14.778 4.716s-.364-8.981 5.134-14.207c5.498-5.225 14.778-4.716 14.778-4.716s.364 8.981-5.134 14.207" mask="url(#12dyhcgved)"/>
                    <path fill="#9F79AF" d="M639.336 324.355c-.17-6.52 7.574-45.857 7.574-45.857l2.211.193s-5.752 24.122-4.954 46.322c.043 1.18-4.8.522-4.831-.658" mask="url(#12dyhcgved)"/>
                    <path fill="#9F79AF" d="M669.572 278.113c-9.921 5.357-22.908 1.137-22.908 1.137s3.1-12.905 13.021-18.262c9.922-5.357 22.909-1.137 22.909-1.137s-3.1 12.905-13.022 18.262" mask="url(#12dyhcgved)"/>
                    <path fill="#D1E9F2" d="M8.096 320.928c-4.471 0-8.096 1.306-8.096 2.918s3.625 2.92 8.096 2.92h857.808c4.472 0 8.096-1.308 8.096-2.92 0-1.612-3.624-2.918-8.096-2.918H8.096z" mask="url(#12dyhcgved)"/>
                    <path fill="#C4ACD1" d="M202.108 181.886l1.092 1.039c.36.345.71.69 1.047 1.033l1.019 1.013c.334.332.638.666.966.985l3.396 3.481c.477.509.94.966 1.328 1.378l1.015 1.068.867.95s-.399.105-1.111.216c-.716.112-1.73.225-2.978.22-1.245-.008-2.736-.126-4.336-.543-1.614-.408-3.355-1.109-5.097-2.296-.865-.598-1.703-1.28-2.457-2.052-.38-.385-.762-.778-1.107-1.197-.346-.42-.68-.851-1.002-1.292-.329-.437-.618-.894-.899-1.355-.28-.46-.549-.924-.799-1.39-.237-.47-.46-.94-.671-1.406-.21-.466-.411-.925-.572-1.381-.691-1.816-1.077-3.488-1.309-4.688-.203-1.204-.274-1.936-.274-1.936s.4.121 1.076.422c.675.3 1.626.779 2.735 1.456 2.236 1.348 5.113 3.507 8.071 6.275M209.879 205.942c4.222 1.045 8.032 2.68 10.86 4.036 1.408.683 2.564 1.303 3.367 1.759.806.453 1.254.745 1.254.745s-.389.232-1.103.57c-.714.335-1.754.776-3.062 1.185-2.618.811-6.302 1.518-10.62.787-2.16-.367-4.266-1.089-6.21-2.007-.97-.464-1.903-.965-2.773-1.51-.876-.528-1.688-1.104-2.435-1.66-.749-.554-1.415-1.133-2.011-1.646-.592-.523-1.095-1.024-1.511-1.437-.418-.41-.733-.77-.949-1.012l-.33-.38s.443-.124 1.24-.254c.798-.133 1.947-.262 3.363-.319 2.841-.121 6.7.11 10.92 1.143M223.828 225.219c2.315.114 4.518.452 6.571.953 2.048.497 3.931 1.128 5.516 1.761 3.176 1.262 5.219 2.487 5.219 2.487s-1.67 1.07-4.48 2.097c-2.81 1.028-6.75 2.017-11.293 1.872-4.572-.168-8.803-1.329-12.165-2.806-1.658-.72-3.035-1.45-3.997-2.005-.963-.562-1.508-.929-1.508-.929s.428-.253 1.219-.616c.79-.364 1.943-.839 3.386-1.29 2.886-.908 6.923-1.74 11.532-1.524M238.111 242.599c2.457.114 4.851.546 7.062 1.13 2.213.583 4.203 1.345 5.912 2.079 1.705.735 3.103 1.457 4.057 2.01.96.547 1.499.905 1.499.905s-1.867 1.082-4.954 2.078c-1.547.501-3.381.974-5.464 1.303-2.08.327-4.384.495-6.827.364-1.223-.065-2.415-.203-3.586-.39-1.175-.187-2.314-.427-3.403-.7-2.182-.547-4.143-1.228-5.847-1.894-1.693-.667-3.076-1.32-4.035-1.805-.48-.243-.855-.445-1.109-.586l-.392-.221s1.81-1.169 4.842-2.294c3.033-1.122 7.306-2.2 12.245-1.98M251.556 260.198c1.316.115 2.613.316 3.874.582.631.133 1.254.281 1.865.443.606.165 1.195.347 1.775.537 2.315.764 4.441 1.687 6.224 2.593 1.758.922 3.197 1.812 4.195 2.47.998.659 1.555 1.084 1.555 1.084s-.525.255-1.479.614c-.953.358-2.334.821-4.04 1.245-1.705.423-3.735.808-5.981 1.017-2.249.21-4.693.24-7.32-.018-1.305-.131-2.579-.334-3.806-.588-.614-.128-1.216-.267-1.805-.417-.586-.152-1.169-.31-1.745-.475-2.294-.66-4.356-1.447-6.087-2.203-1.752-.752-3.196-1.472-4.184-2.008-.992-.535-1.543-.885-1.543-.885s1.988-1.2 5.291-2.312c1.652-.556 3.635-1.087 5.87-1.427 1.117-.17 2.299-.292 3.53-.343 1.221-.048 2.495-.024 3.811.09M222.157 184.001c-2.099 2.34-4.36 4.654-6.16 6.27-.898.812-1.692 1.46-2.255 1.898-.56.437-.904.664-.904.664l-.042-.332c-.021-.217-.04-.536-.058-.935-.018-.4-.03-.88.003-1.427.013-.273.03-.56.054-.86.023-.3.072-.616.119-.94.176-1.29.584-2.75 1.23-4.151.351-.702.723-1.39 1.217-2.036.243-.323.479-.638.763-.938.28-.3.574-.587.88-.86 2.483-2.183 5.584-2.893 7.874-3.129 1.17-.116 2.152-.116 2.844-.099.692.02 1.095.057 1.095.057s-.13.156-.437.428c-.165.136-.325.307-.55.507-.107.101-.246.207-.362.326-.12.119-.254.245-.401.38l-.23.208-.226.226c-.156.154-.326.318-.51.49-.175.182-.356.368-.54.557-.195.195-.402.399-.595.618-.2.218-.415.445-.642.68l-.67.746-.364.392-.358.41c-.245.276-.503.56-.775.85" mask="url(#12dyhcgved)"/>
                    <path fill="#C4ACD1" d="M231.117 199.446c-.752 3.698-2.114 6.992-3.379 9.324-.624 1.167-1.217 2.097-1.655 2.733-.439.637-.723.98-.723.98s-.225-.477-.55-1.313c-.32-.836-.735-2.037-1.085-3.483-.71-2.882-1.122-6.774-.092-10.442 1.028-3.676 3.223-6.357 5.105-8.093.927-.875 1.813-1.515 2.429-1.951.622-.433 1.003-.658 1.003-.658l.003.24c.004.16-.014.388-.013.694.001.305-.013.68-.033 1.12.001.447-.035.952-.053 1.526-.048 1.145-.11 2.544-.248 4.126-.122 1.584-.344 3.349-.709 5.197M245.999 215.506c-.079 4.404-1.297 8.152-2.493 10.77-1.198 2.624-2.372 4.144-2.372 4.144s-1.074-2.029-2.127-5.164c-.525-1.57-1.056-3.401-1.438-5.4-.192-.998-.348-2.037-.452-3.101-.102-1.064-.131-2.128-.089-3.21.173-4.318 1.59-7.895 2.942-10.384.682-1.244 1.343-2.22 1.831-2.887.489-.668.805-1.026.805-1.026s.202.455.492 1.27c.296.816.699 2 1.113 3.464.422 1.467.857 3.217 1.19 5.155.388 2 .639 4.169.598 6.369M262.405 232.778c-.194 4.821-1.614 8.777-3.025 11.577-1.402 2.787-2.74 4.368-2.74 4.368s-.263-.56-.65-1.55c-.38-.995-.907-2.4-1.425-4.105-.52-1.7-1.009-3.725-1.383-5.884-.368-2.165-.585-4.504-.504-6.892.142-4.74 1.455-8.78 2.735-11.622 1.279-2.833 2.531-4.481 2.531-4.481s.298.555.742 1.538c.444.985 1.034 2.417 1.615 4.138.581 1.72 1.155 3.736 1.555 5.95.4 2.208.645 4.552.55 6.963M278.32 251.195c-.115 1.298-.314 2.53-.573 3.694-.253 1.158-.598 2.28-.963 3.307-.738 2.064-1.625 3.827-2.477 5.264-.852 1.436-1.669 2.546-2.272 3.299-.602.753-.99 1.148-.99 1.148s-.242-.615-.585-1.697c-.343-1.083-.787-2.634-1.199-4.514-.434-1.863-.86-4.034-1.109-6.402-.064-.59-.112-1.198-.158-1.805-.048-.606-.083-1.22-.103-1.842-.04-1.244-.02-2.516.077-3.8.096-1.281.275-2.526.49-3.69.217-1.165.49-2.274.796-3.318.613-2.09 1.367-3.921 2.1-5.434.733-1.512 1.448-2.708 1.977-3.517.53-.809.878-1.24.878-1.24l.214.446c.135.294.326.731.554 1.286.455 1.11 1.056 2.698 1.635 4.604.144.477.289.971.427 1.488.135.522.266 1.062.39 1.617.249 1.11.47 2.28.643 3.488.086.604.161 1.218.22 1.839.03.31.057.622.08.936.019.318.034.638.045.96.043 1.284.017 2.585-.098 3.883" mask="url(#12dyhcgved)"/>
                    <path fill="#C4ACD1" d="M292.208 310.535l-.225-.597c-.272-.72-.539-1.44-.805-2.163-.746-2.023-1.518-4.116-2.413-6.11l-1.533-3.6-2.87-6.02-1.287-2.448c-.246-.463-.491-.93-.736-1.398-.437-.835-.89-1.698-1.352-2.533l-2.22-3.865c-.133-.227-.266-.46-.398-.692-.231-.405-.47-.823-.716-1.222l-1.176-1.897c-.278-.445-.555-.893-.832-1.34-.507-.819-1.013-1.636-1.528-2.448l-3.703-5.574-3.853-5.471-3.987-5.377-4.1-5.294-2.797-3.479c-7.456-9.25-15.295-18.085-23.34-27.075-3.614-4.021-7.778-8.723-11.44-13.631-1.922-2.569-3.542-4.962-4.954-7.317-1.569-2.593-2.908-5.223-3.978-7.815l-.25-.604 1.749-.672.248.603c1.036 2.509 2.334 5.056 3.856 7.573 1.381 2.303 2.968 4.646 4.854 7.166 3.616 4.848 7.748 9.513 11.336 13.505 8.063 9.01 15.92 17.866 23.403 27.149l2.807 3.493 4.124 5.323 4.011 5.41 3.88 5.508 3.729 5.613c.529.834 1.04 1.661 1.553 2.489l.825 1.33 1.182 1.904c.26.421.505.852.741 1.268.13.228.26.456.393.683l2.234 3.888c.477.86.934 1.732 1.376 2.576.244.466.488.932.735 1.397l1.305 2.482 2.9 6.082 1.545 3.628c.912 2.032 1.695 4.155 2.452 6.21.265.718.53 1.436.8 2.152l.237.625-1.782.585z" mask="url(#12dyhcgved)"/>
                    <path fill="#E296AF" d="M265.95 324.136h-20.986c-5.149-2.126-9.502-4.6-13.18-7.291l3.124-2.676-4.511 1.624c-3.624-2.838-6.541-5.89-8.884-9.016l9.527-6.937-11.908 3.436c-4.055-6.608-5.821-13.298-6.52-18.761l1.457-1.633-1.618.213c-.636-6.4.161-10.794.161-10.794s-.248 5.075 12.229 8.001l-1.3 3.145 5.326-2.358c.926.15 1.905.29 2.94.416 8.14.994 16.124 4.7 22.377 10.296l-3.73 2.639 5.503-.954c5.031 5.077 8.692 11.471 10.007 18.675l-4.386 1.163 4.678.754c.394 3.22.318 6.587-.306 10.058" mask="url(#12dyhcgved)"/>
                    <path fill="#B56983" d="M262.451 317.972l-3.444-.97 3.264 3.436c-.216 2.412-.454 3.697-.454 3.697h-20.662c-2.14-4.52-3.333-9.14-3.875-13.747l4.184-.707-4.418-1.82c-.322-4.726-.014-9.42.601-13.96l5.43-1.023-4.875-2.593c.932-5.474 2.197-10.666 3.2-15.351l4.034-1.137-3.63-.81c1.057-5.25 1.646-9.78.839-13.248 0 0 7.165 5.775 12.66 15.928l-2.954 1.37h3.672c2.15 4.25 3.965 9.201 4.863 14.764.69 4.258 1.127 8.172 1.388 11.692l-5.049 1.028 5.205 1.38c.274 4.968.197 9.043.021 12.07" mask="url(#12dyhcgved)"/>
                    <path fill="#D17993" d="M286.445 297.562l-5.268-1.1 5.015 5.621c-.328 4.227-.925 8.579-1.863 12.993l-3.338.287 2.886 1.728c-.55 2.336-1.198 4.687-1.955 7.045h-27.303c-1.465-6.01-2.17-11.436-2.269-16.364l5.744-1.41-5.735-1.326c.308-11.666 4.117-20.426 9.155-27.576l11.1 1.361-7.921-5.501c1.322-1.595 2.691-3.11 4.074-4.563 2.162-2.273 3.86-4.318 5.195-6.137h4.05l-2.736-1.893c4.015-6.13 3.52-9.16 3.52-9.16s2.557 6.035 4.728 15.728l-6.629 1.985 7.305 1.235c1.484 7.538 2.601 16.852 2.245 27.047" mask="url(#12dyhcgved)"/>
                    <path fill="#7E508E" d="M294.465 301.04l-3.457.017 3.297 1.613c-.42 3.801-1.283 8.399-2.98 13.21l-2.347-1.262 1.548 3.382c-.788 1.969-1.725 3.961-2.833 5.934l-1.634-.331.445.49H272.17c.202-3.072.678-5.758 1.37-8.12l2.95.131-2.536-1.435c1.894-5.52 5.022-9.162 8.495-11.866l5.088 2.204-2.953-3.733c.87-.575 1.749-1.105 2.626-1.604 1.372-.782 2.487-1.518 3.396-2.199l1.932.568-1.021-1.287c2.832-2.36 3.049-3.874 3.049-3.874s.316 3.236-.1 8.161" mask="url(#12dyhcgved)"/>
                    <path fill="#F9DDC2" d="M367.658 245.047L266.42 245.047 246.207 112.115 347.445 112.115z" mask="url(#12dyhcgved)"/>
                    <path fill="#896868" d="M312.375 325.129L319.976 325.129 319.976 247.112 312.375 247.112z" mask="url(#12dyhcgved)"/>
                </g>
                <g>
                    <g transform="translate(214.000000, -115.000000) translate(-214.000000, 115.000000) translate(246.000000, 113.000000)">
                        <mask id="oa7w48btsf" fill="#fff">
                            <use xlink:href="#kaal6wozpe"/>
                        </mask>
                        <path fill="#CFD3E5" d="M5.67 37.817h108.952l4.389 69.678 1.99 15.283-45.567 2.857-44.463 3.261-22.72-9.308S-2.644 112.72-6.83 96.794c-4.185-15.926-4.798-29.829-4.798-29.829L5.67 37.817z" mask="url(#oa7w48btsf)"/>
                    </g>
                    <g transform="translate(214.000000, -115.000000) translate(-214.000000, 115.000000) translate(246.000000, 113.000000)">
                        <mask id="fxnh44pxwh" fill="#fff">
                            <use xlink:href="#5sxd7ls7ag"/>
                        </mask>
                        <path fill="#BDC2D6" d="M70.99 76.42c4.905 4.697 17.509 6.124 10.585 8.094-6.914 1.967-1.888 3.34 8.577 4.953 2.87.443 2.24 2.655-2.18 2.655-14.343 0-20.05 5.196-12.622 7.742 11.618 3.981-16.237 6.635-14.042 13.603 2.194 6.968 11.23 19.162 46.601 8.71 35.37-10.452 45.2-28.79 45.2-28.79l-7.15-20.781h-34.02l-40.95 3.814z" mask="url(#fxnh44pxwh)"/>
                    </g>
                    <g transform="translate(214.000000, -115.000000) translate(-214.000000, 115.000000) translate(246.000000, 113.000000)">
                        <mask id="odcv0qzmbj" fill="#fff">
                            <use xlink:href="#1q1ncyjzji"/>
                        </mask>
                        <path fill="#EF8560" d="M125.047 94.126c-28.582 1.424-54.553 17.683-55.338 34.936-.785 17.253-1.827 20.796 22.047 19.554 23.875-1.242 55.98-2.73 55.98-2.73l16.542-20.251-39.231-31.51z" mask="url(#odcv0qzmbj)"/>
                    </g>
                    <g transform="translate(214.000000, -115.000000) translate(-214.000000, 115.000000) translate(246.000000, 113.000000)">
                        <mask id="iz5t4atg0l" fill="#fff">
                            <use xlink:href="#pmand3skfk"/>
                        </mask>
                        <path fill="#E0BC6C" d="M13.285 75.914c21.86 1.29 34.64 23.286 43.246 32.577 8.606 9.29 36.49 8.524 42.686 22.013 6.196 13.489-10.23 14.077-10.23 14.077L45.86 155.47 6.12 144.58l-22.223-24.993-4.476-35.074s21.6-9.323 33.864-8.6" mask="url(#iz5t4atg0l)"/>
                    </g>
                    <g transform="translate(214.000000, -115.000000) translate(-214.000000, 115.000000) translate(246.000000, 113.000000)">
                        <mask id="g5jquy7lon" fill="#fff">
                            <use xlink:href="#1plmhogz2m"/>
                        </mask>
                        <path fill="#F29E5F" d="M116.429 59.716c-18.933-7.3-38.362 4.874-46.72 16.704H121l-4.571-16.704z" mask="url(#g5jquy7lon)"/>
                    </g>
                    <g transform="translate(214.000000, -115.000000) translate(-214.000000, 115.000000) translate(246.000000, 113.000000)">
                        <mask id="ou11yk1l8p" fill="#fff">
                            <use xlink:href="#ezr4zmd59o"/>
                        </mask>
                        <path fill="#F29E5F" d="M-10.389 55.732C9.673 51.09 16.214 69.85 27.574 64.617c11.36-5.232 20.75 2.348 20.75 2.348h-63.78l5.067-11.233z" mask="url(#ou11yk1l8p)"/>
                    </g>
                    <g transform="translate(214.000000, -115.000000) translate(-214.000000, 115.000000) translate(246.000000, 113.000000)">
                        <mask id="fou1vtwokr" fill="#fff">
                            <use xlink:href="#vrr0wdz9nq"/>
                        </mask>
                        <path fill="#9CBFD8" d="M82.914 41.136s-23.629-27.54-46.349-14.6c-22.72 12.94-41.309-14.93-47.16 1.66-5.853 16.59-3.89 13.603-3.89 13.603l97.399-.663z" mask="url(#fou1vtwokr)"/>
                    </g>
                    <g transform="translate(214.000000, -115.000000) translate(-214.000000, 115.000000) translate(246.000000, 113.000000)">
                        <mask id="47rox0xrtt" fill="#fff">
                            <use xlink:href="#005u5c88qs"/>
                        </mask>
                        <path fill="#7DA3BA" d="M69.709 47.44s12.985-30.67 38.458-23.63c25.474 7.04 15.993 16.994 15.993 16.994l1.726 6.635H69.71z" mask="url(#47rox0xrtt)"/>
                    </g>
                    <g transform="translate(214.000000, -115.000000) translate(-214.000000, 115.000000) translate(246.000000, 113.000000)">
                        <mask id="r0a2583tav" fill="#fff">
                            <use xlink:href="#g68opjdgau"/>
                        </mask>
                        <path fill="#EF8560" d="M82.35 15.421c0 3.024-2.544 5.475-5.68 5.475-3.138 0-5.68-2.451-5.68-5.475 0-3.024 2.542-5.474 5.68-5.474 3.136 0 5.68 2.45 5.68 5.474" mask="url(#r0a2583tav)"/>
                    </g>
                    <g transform="translate(214.000000, -115.000000) translate(-214.000000, 115.000000) translate(246.000000, 113.000000)">
                        <mask id="p87ahf2jcx" fill="#fff">
                            <use xlink:href="#rbj7qx266w"/>
                        </mask>
                        <path fill="#FFF" d="M-4.882 10.78c6.294-3.54 8.21 6.663 11.766 3.677 3.557-2.986 3.831 4.728 8.483 2.737 4.651-1.99 8.62 1.764 8.62 1.764H-7.345l2.462-8.178z" mask="url(#p87ahf2jcx)"/>
                    </g>
                </g>
                <g transform="translate(214.000000, -115.000000) translate(-214.000000, 115.000000)">
                    <path fill="#755858" d="M344.585 197.146c-17.78 34.17-5.01 47.9-5.01 47.9h28.083l-13.399-53.914-9.674 6.014z"/>
                    <path fill="#F29E5F" d="M334.955 248.444h-37.558c-.315 0-.571-.247-.571-.552l-1.344-8.703c0-.305.256-.552.571-.552h37.558c.315 0 .57.247.57.552l1.344 8.703c0 .305-.255.552-.57.552"/>
                    <path fill="#C68FC6" d="M541.023 157.424c-.696.532-1.322 1.091-1.953 1.647-.627.557-1.21 1.12-1.75 1.676-.528.558-1.066 1.098-1.534 1.623-.478.524-.89 1.031-1.293 1.499-.806.936-1.403 1.747-1.835 2.322-.434.573-.659.919-.659.919s.382.044 1.049.06c.667.014 1.62.001 2.764-.125 1.15-.125 2.47-.369 3.883-.826 1.408-.46 2.94-1.118 4.393-2.123.734-.5 1.431-1.055 2.086-1.647.634-.6 1.227-1.239 1.778-1.892.274-.327.541-.657.79-.99.243-.335.473-.672.693-1.008.44-.67.835-1.332 1.186-1.963.66-1.273 1.141-2.421 1.46-3.245.296-.83.428-1.336.428-1.336s-.382.054-1.034.216c-.653.16-1.577.429-2.662.841-1.09.412-2.365.963-3.69 1.684-.663.36-1.34.76-2.019 1.206-.686.444-1.394.929-2.081 1.462M537.375 177.762c-3.513 1.527-6.456 3.63-8.587 5.333-1.049.86-1.907 1.617-2.481 2.17-.575.554-.893.893-.893.893s.408.116 1.132.252c.725.137 1.762.294 3.024.37 2.526.151 5.958.001 9.552-1.383 3.582-1.394 6.649-3.808 8.736-6.015.531-.538.991-1.074 1.393-1.562.402-.487.744-.927 1.022-1.297.28-.367.486-.676.625-.889l.21-.329s-.422-.052-1.164-.07c-.743-.02-1.797.002-3.081.116-2.573.225-5.978.888-9.488 2.41M530.48 196.563c-3.954 1.177-7.355 3.187-9.774 4.926-2.417 1.737-3.843 3.21-3.843 3.21s1.771.549 4.523.826c1.375.14 2.997.21 4.769.11 1.77-.1 3.686-.37 5.661-.928 3.945-1.112 7.375-3.181 9.826-5.079 1.226-.927 2.202-1.836 2.874-2.475.335-.32.594-.588.768-.776l.266-.29s-.448-.124-1.243-.267c-.795-.145-1.937-.3-3.328-.393-2.782-.18-6.546-.043-10.499 1.136M523.072 214.309c-4.224 1.215-7.81 3.496-10.29 5.545-.618.511-1.173 1.005-1.657 1.457-.473.456-.877.87-1.205 1.22-.328.35-.581.635-.751.831-.172.197-.254.308-.254.308s.493.102 1.361.207c.871.106 2.119.216 3.62.244 1.504.027 3.253-.027 5.143-.24.95-.106 1.934-.253 2.934-.45.999-.196 2.016-.442 3.055-.754 1.038-.312 2.016-.665 2.967-1.057.952-.392 1.854-.814 2.7-1.25.86-.443 1.665-.9 2.41-1.355.742-.454 1.447-.921 2.073-1.36.315-.221.612-.436.894-.646.285-.212.553-.418.802-.614.499-.392.924-.747 1.27-1.045.696-.603 1.078-.988 1.078-.988s-1.918-.609-4.903-.922c-2.972-.322-7.018-.35-11.247.869M517.332 231.578c-1.063.428-2.082.931-3.052 1.488-.954.563-1.84 1.183-2.681 1.829-.849.641-1.601 1.329-2.298 2.01-.692.683-1.35 1.358-1.895 2.017-1.106 1.312-1.974 2.5-2.523 3.36-.56.86-.848 1.386-.848 1.386s.546.023 1.49-.017c.946-.04 2.292-.143 3.892-.385 1.602-.24 3.45-.633 5.43-1.199.987-.285 2.002-.619 3.025-1.009.513-.193 1.022-.407 1.541-.623.52-.215 1.04-.443 1.558-.685 1.037-.481 2.003-1.016 2.93-1.532.932-.506 1.802-1.024 2.606-1.54 1.63-1.025 3.027-2 4.21-2.911.292-.226.564-.443.823-.654.267-.213.516-.418.747-.612.461-.389.85-.736 1.163-1.026.65-.593.993-.957.993-.957s-.528-.13-1.454-.282c-.927-.153-2.253-.33-3.857-.409-3.187-.16-7.486.045-11.8 1.751M522.422 159.787c1.023 1.151 2.157 2.192 3.221 3.105 1.077.912 2.155 1.692 3.093 2.321.933.629 1.748 1.106 2.33 1.423.583.317.933.474.933.474s-.013-.413-.09-1.113c-.082-.7-.27-1.694-.562-2.829-.648-2.279-1.87-5.141-4.144-7.387-.544-.563-1.152-1.06-1.76-1.5-.608-.442-1.222-.825-1.829-1.159-.6-.335-1.224-.617-1.812-.858-.59-.241-1.157-.441-1.685-.608-1.057-.332-1.961-.532-2.602-.653-.641-.12-1.018-.162-1.018-.162s.107.278.346.754c.238.478.63 1.152 1.095 1.98 1.007 1.639 2.404 3.905 4.484 6.212"/>
                    <path fill="#C68FC6" d="M516.816 176.147c.406.772.83 1.513 1.277 2.214.448.7.918 1.36 1.395 1.979.948 1.236 1.912 2.299 2.791 3.162 1.757 1.73 3.135 2.656 3.135 2.656s.07-.448.114-1.226c.045-.778.09-1.88.001-3.184-.043-.653-.098-1.351-.208-2.085-.111-.734-.257-1.498-.446-2.277-.191-.78-.449-1.574-.748-2.363-.295-.79-.666-1.576-1.1-2.34-.437-.765-.9-1.473-1.412-2.124-.512-.65-1.047-1.245-1.587-1.786-1.072-1.084-2.2-1.95-3.206-2.626-1.004-.678-1.89-1.168-2.523-1.493-.634-.325-1.016-.484-1.016-.484s.023.36.12.99c.047.315.12.695.203 1.138.075.446.173.95.3 1.501.495 2.206 1.338 5.24 2.91 8.348M508.272 193.13c1.37 3.68 3.507 6.592 5.315 8.558 1.807 1.973 3.276 3.01 3.276 3.01s.348-1.95.364-4.82c.016-2.867-.31-6.656-1.735-10.28-.358-.905-.765-1.758-1.204-2.557-.442-.797-.92-1.538-1.408-2.225-.49-.686-.991-1.318-1.489-1.894-.5-.575-.999-1.092-1.472-1.554-1.894-1.846-3.407-2.806-3.407-2.806s-.057.447-.092 1.227c-.029.774-.067 1.905-.011 3.26.102 2.714.49 6.406 1.863 10.08M498.88 211.573c.398 1.034.849 1.995 1.34 2.892.496.903 1.027 1.735 1.573 2.497 1.087 1.52 2.259 2.783 3.315 3.774 1.058.992 2.01 1.722 2.696 2.207.686.485 1.11.727 1.11.727l.022-.383c.013-.248.029-.612.037-1.074.007-.462.007-1.022-.01-1.665-.006-.638-.028-1.357-.075-2.141-.185-3.131-.67-7.274-2.178-11.308-.377-1.005-.803-1.958-1.261-2.857-.458-.897-.946-1.73-1.448-2.511-1.005-1.564-2.065-2.887-3.034-3.953-1.936-2.14-3.506-3.277-3.506-3.277s-.102.54-.209 1.478c-.054.47-.107 1.03-.152 1.689s-.08 1.4-.09 2.202c-.044 3.225.286 7.574 1.87 11.703M491.158 232.644c.606 1.056 1.26 2.019 1.94 2.895.692.87 1.42 1.647 2.142 2.353 1.448 1.413 2.904 2.517 4.22 3.363 1.309.85 2.453 1.45 3.27 1.841.816.39 1.305.572 1.305.572s-.054-.568-.219-1.542c-.175-.972-.412-2.352-.823-3.989-.214-.818-.416-1.704-.69-2.637-.133-.467-.278-.947-.435-1.436-.16-.488-.303-.99-.474-1.498-.33-1.018-.73-2.071-1.155-3.136-.414-1.063-.893-2.145-1.427-3.219-.522-1.064-1.087-2.074-1.675-3.027-.591-.955-1.18-1.83-1.792-2.657-.608-.823-1.226-1.59-1.825-2.285-.596-.69-1.182-1.318-1.737-1.879-1.111-1.121-2.103-1.976-2.818-2.547-.716-.574-1.152-.855-1.152-.855s-.024.16-.054.47c-.03.308-.07.76-.104 1.327-.033.572-.07 1.247-.075 2.04-.003.794.013 1.682.061 2.637.113 1.93.369 4.148.92 6.46.255 1.148.634 2.305 1.057 3.443.214.569.445 1.133.695 1.689.248.557.545 1.087.845 1.617"/>
                    <path fill="#C68FC6" d="M495.871 283.245l.254-.554c1.921-4.187 3.461-8.877 4.707-14.338 1.175-5.116 1.975-10.554 2.618-14.924l.252-1.725c.636-4.364 1.294-8.877 2.153-13.302.219-1.097.46-2.216.693-3.299l.095-.442.454-1.852.132-.538c.104-.43.211-.874.337-1.299l.52-1.862c.112-.39.235-.783.357-1.175l.201-.651.284-.917.916-2.718c2.847-8.09 6.56-15.96 10.15-23.568.697-1.478 1.394-2.954 2.084-4.431 1.1-2.35 2.166-4.681 3.169-6.931 1.134-2.59 2.07-4.77 2.951-7.014.814-2.076 1.758-4.547 2.589-7.133l.294-.889.819-2.717.245-.902c.246-.904.5-1.838.708-2.773l.13-.582-1.705-.379-.133.599c-.201.901-.45 1.816-.691 2.701l-.24.888-.805 2.669-.29.876c-.818 2.544-1.75 4.986-2.555 7.04-.871 2.216-1.8 4.381-2.925 6.95-.997 2.237-2.06 4.56-3.155 6.9-.692 1.48-1.39 2.96-2.09 4.443-3.603 7.637-7.33 15.535-10.209 23.715l-.927 2.753-.29.936c-.066.219-.134.435-.201.651-.125.402-.25.803-.367 1.207l-.522 1.868c-.132.449-.243.91-.352 1.357l-.13.531-.46 1.88-.1.463c-.235 1.09-.477 2.217-.699 3.33-.868 4.468-1.528 8.996-2.166 13.376l-.253 1.728c-.784 5.331-1.52 10.124-2.594 14.798-1.22 5.349-2.724 9.933-4.597 14.015l-.253.552 1.597.689z"/>
                    <path fill="#9CBFD8" d="M486.842 240.502c-7.681 0-13.908-6.022-13.908-13.45 0-7.427 6.227-13.449 13.908-13.449 7.68 0 13.907 6.022 13.907 13.45 0 7.427-6.227 13.449-13.907 13.449m85.274-1.21c-26.331-19.308-36.7-2.405-47.825-12.396-11.126-9.99-12.467-26.674-30.494-28.72-18.028-2.045-57.685 28.663-39.22 70.37 23.224 52.46 67.978 67.056 101.774 51.837 39.927-17.979 42.098-61.78 15.765-81.09"/>
                    <path fill="#7DA3BA" d="M471.262 245.047c17.126 18.15 2.185 53.585 2.185 53.585s-11.892-9.89-15.784-30.043c-3.893-20.152 13.599-23.542 13.599-23.542"/>
                    <path fill="#CCD9E2" d="M348.764 266.115c-14.8 0-26.842 11.644-26.842 25.957s12.042 25.958 26.842 25.958c14.8 0 26.842-11.645 26.842-25.958 0-14.313-12.041-25.957-26.842-25.957m0 57.892c-18.209 0-33.023-14.326-33.023-31.935 0-17.609 14.814-31.934 33.023-31.934 18.21 0 33.023 14.325 33.023 31.934 0 17.61-14.814 31.935-33.023 31.935"/>
                    <path fill="#755858" d="M357.483 252.264l-4.249 10.482c-1.192 2.941-.343 6.29 2.12 8.364l14.44 12.156c2.385 2.008 5.796 2.408 8.609 1.009l12.337-6.136-33.257-25.875z"/>
                    <path fill="#896868" d="M359.146 229.658l-5.442 8.178c-3.881 5.833-2.677 13.545 2.81 18.01l35.01 28.487c5.004 4.071 12.23 4.33 17.53.626l13.795-9.64-63.703-45.661z"/>
                    <path fill="#D3A89B" d="M389.66 189.003c17.564 7.276 16.015 23.7 47.303 37.264 35.367 15.333 45.824 43.412 26.136 56.878-19.687 13.467-49.538 14.918-72.044-19.063-17.1-25.817-47.601-18.378-51.186-47.128-3.586-28.748 26.39-37.646 49.792-27.951"/>
                    <path fill="#E0CDBE" d="M393.1 183.951c17.564 7.276 16.015 23.7 47.303 37.264 35.367 15.333 45.824 43.412 26.136 56.878-19.687 13.467-47.367 16.33-72.044-19.063-17.724-25.42-47.601-18.378-51.186-47.127-3.586-28.75 26.39-37.647 49.792-27.952"/>
                    <path fill="#F9DDC2" d="M476.663 137.105L530.073 115.72 510.789 161.696 476.307 168.241 462.985 156.038z"/>
                    <path fill="#D3A89B" d="M443.392 287.149c-13.324 1.478-27.936-3.332-41.929-19.204-.172-.53-9.342-28.795-6.396-56.629l44.02 25.425 4.305 50.408z"/>
                    <path fill="#F76374" d="M393.89 211.555l82.773-74.45 1.11 6.526c.342 2.01 2.168 3.467 4.274 3.408l8.573-.238c2.227-.062 4.118 1.565 4.314 3.711l.694 7.63c.194 2.125 2.05 3.746 4.257 3.713l10.905-.16-80.746 83.768c-.708.734-1.7 1.145-2.737 1.14-6.574-.036-30.36-2.241-34.562-31.927-.164-1.159.26-2.325 1.146-3.121"/>
                    <path fill="#5B5959" d="M520.886 119.399L521.493 123.803 526.359 124.096 533.96 113.237z"/>
                    <path fill="#E2566A" d="M495.703 158.968L412.091 243.341 409.186 241.434 495.461 156.301zM480.552 146.697L397.521 229.474 395.858 226.631 478.516 145.786z"/>
                    <path fill="#7DA3BA" d="M500.28 263.198c0 4.916-4.121 8.901-9.204 8.901-5.084 0-9.205-3.985-9.205-8.901s4.121-8.901 9.205-8.901c5.083 0 9.204 3.985 9.204 8.9M512.221 289.73c0 4.917-4.12 8.902-9.204 8.902-5.084 0-9.204-3.985-9.204-8.901s4.12-8.902 9.204-8.902c5.083 0 9.204 3.986 9.204 8.902M545.831 293.984c0 4.916-4.12 8.902-9.204 8.902-5.083 0-9.204-3.986-9.204-8.902 0-4.916 4.12-8.9 9.204-8.9 5.084 0 9.204 3.984 9.204 8.9M570.33 269.55c0 4.917-4.12 8.902-9.204 8.902-5.084 0-9.205-3.985-9.205-8.901s4.121-8.901 9.205-8.901c5.083 0 9.204 3.985 9.204 8.9"/>
                    <path fill="#C65858" d="M379.947 171.086c-10.316 13.336-16.748 15.332-39.168 22.218l-4.298-4.355 34.156-25.228 9.31 7.365z"/>
                    <path fill="#AF4A4A" d="M346.27 191.378s17.312-15.811 16.638-18.26c-.673-2.447-.098-3.58-.098-3.58l4.736-3.012s6.173-1.063 6.415-.156c.243.907 1.273 5.046.166 5.75-1.108.705-21.948 18.753-21.948 18.753l-5.91.505z"/>
                    <path fill="#4F2F5B" d="M313.134 223.394l-2.176 3.148s-7.528-4.241-7.834-7.217c0 0 5.897 3.484 8.526 2.775 2.629-.71 1.484 1.294 1.484 1.294"/>
                    <path fill="#C65858" d="M341.08 192.296s-6.81 10.648-9.613 12.942c-2.805 2.294-17.865 18.111-17.865 18.111l-1.952-1.25 22.737-31.839 2.857-1.875 3.836 3.91z"/>
                    <path fill="#D86161" d="M382.891 177.753c.362 14.415-18.535 17.878-41.248 26.725l-4.14-4.496 34.012-27.874 11.376 5.645z"/>
                    <path fill="#C95B5B" d="M382.18 182.417c-2.612 3.415-21.698 1.112-18.659-3.889l5.772-5.06 13.598 4.285s.411 3.196-.712 4.664"/>
                    <path fill="#4F2F5B" d="M351.683 241.897l1.346 3.556s-7.981 3.378-10.647 1.862c0 0 6.387-2.551 7.345-5.023.958-2.472 1.956-.395 1.956-.395"/>
                    <path fill="#D86161" d="M342.192 201.731s4.877 11.598 5.139 15.14c.262 3.544 4.59 24.633 4.59 24.633l-2.194.788-14.145-37.797c-.493-1.317-.096-2.792.998-3.71l.913-.765 4.699 1.711z"/>
                    <path fill="#876070" d="M368.784 129.533c.347 4.21 3.177 8.56 6.128 10.432 2.951 1.873 13.73 4.21 14.248 9.787 1.11 11.95-12.638 15.924-22.042 8.826-9.405-7.097-2.05-16.981-4.25-20.57-2.202-3.59 5.916-8.475 5.916-8.475"/>
                    <path fill="#876070" d="M373.973 138.404c.372-2.258-1.248-3.906-2.815-5.5-1.07-1.087-2.175-2.212-2.592-3.5l-.158.048c.429 1.324 1.548 2.462 2.63 3.562 1.54 1.566 3.13 3.185 2.771 5.365l.164.025z"/>
                    <path fill="#96C7A2" d="M380.278 145.78l-3.108 17.592s8.12 12.721 6.898 15.494c-.015.035-7.032 2.425-19.735 1.674l-1.841-6.543-2.268 5.751c-4.003.094-8.222-1.744-8.222-1.744l6.202-15.56-2.44-14.485 9.89-10.278 2.484-.57 3.8.64 8.34 8.03z"/>
                    <path fill="#FFCEBF" d="M334.234 129.82s-.547-1.42-.1-2.063c.447-.644.4-.986.016-.812-.385.175-.8.734-.8.734s-1.152-2.12-1.517-2.146c-.365-.027-.038.58-.038.58s.337.958.067 1.02c-.272.062-.244.32-.33.455-.216.336-.081.376-.18.613-.204.487.2 2.636 1.58 2.489l.57 1.134.732-2.004z"/>
                    <path fill="#96C7A2" d="M365.652 137.605s-6.852 2.773-9.672 5.102c-3.65 3.016-12.677 9.052-12.677 9.052l.23 2.558c1.46 2.152 3.28 5.212 8.047 3.658l9.988-7.795 4.246-6.1-.162-6.475z"/>
                    <path fill="#EFF6F2" d="M368.524 138.64L370.976 139.902 368.653 143.334 365.975 141.318 364.594 143.432 363.099 140.924 364.977 139.004z"/>
                    <path fill="#FFCEBF" d="M363.878 135.858l.984 3.962s1.21.66 2.113.072c1.054-.686 1.271-1.746 1.271-1.746l-2.03-7.824-.84-.476-1.498 6.012z"/>
                    <path fill="#E5A495" d="M367.19 134.224c-.317 3.813-2.82 3.697-2.82 3.697l-.6-1.978 2.825-4.49.594 2.771z"/>
                    <path fill="#FFCEBF" d="M357.088 128.351c.248 5.102 3.105 10.398 7.04 9.112 0 0 3.156-1.09 2.993-5.717-.154-4.384-3.443-5.602-3.902-5.61-.458-.007-6.131 2.215-6.131 2.215"/>
                    <path fill="#876070" d="M356.775 129.295c.075.482.28.232 1.78-.074 2.558 1.148 5.491.79 6.327.634l1.184 1.521 1.377 3.72s.307-1.208.918-3.115c.38-1.19.59-2.697-.053-4.185-1.623-3.758-4.787-3.717-7.243-3.048-2.06.56-3.618 1.394-4.29 4.547"/>
                    <path fill="#876070" d="M358.567 129.875c2.807 2.583 6.584.874 6.584.874l1.014 1.388-.057-2.745s-3.387-.857-3.544-1.023c-.156-.167-3.997 1.506-3.997 1.506"/>
                    <path fill="#FFCEBF" d="M365.806 130.449c.257-1.36 1.116-1.322 1.462-.417.346.905.263 2.964-.778 2.499-1.042-.465-.684-2.082-.684-2.082"/>
                    <path fill="#876070" d="M358.567 129.875s-.122 1.812-.94 2.348c0 0-1.366-1.72-.903-3.102.464-1.382 3.412-1.661 3.54-1.591.129.07 2.4.811 2.4.811l-2.938 1.428-1.16.106z"/>
                    <path fill="#876070" d="M364.243 132.055c.563-.221 1.032-.579 1.362-1.05l-.138-.09c-.544.779-1.498 1.23-2.618 1.235-1.568.009-3.12-.846-4.15-2.286l-.136.091c1.062 1.484 2.664 2.364 4.287 2.356.502-.003.974-.092 1.393-.256"/>
                    <path fill="#EFF6F2" d="M334.561 130.073l-.295-.817s-1.557.654-2.142 1.827l1.476 2.617.961-3.627z"/>
                    <path fill="#96C7A2" d="M347.172 143.603l-12.628-13.808-2.444 1.465 9.487 19.643 2.776 4.698c2.36.546 5.236-4.14 6.895-5.853l.022-.023-4.108-6.122zM371.32 137.647s-1.36 1.437.749 6.19c4.442 10.01 16.904-3.748 16.904-3.748l.066-1.377-3.303-3.767-6.433 1.903-7.984.799z"/>
                    <path fill="#FFCEBF" d="M381.897 118.305s-.577-1.297-1.307-1.452c-.73-.155-.927-.415-.552-.537.376-.122 1.028-.005 1.028-.005s-.637-2.146-.408-2.39c.228-.246.411.367.411.367s-.195-.796.029-.923.41.585.41.585-.032-.448.115-.484c.138-.034.346.353.399.72 0 0-.103-.345.132-.42.131-.04.255.322.394.68.364.941 1.055 1.927.604 3.027l.574 1.726-1.829-.894z"/>
                    <path fill="#FCF3F2" d="M381.846 118.68l-.346-.735s1.484-.53 2.66-.105l.75 2.683-3.064-1.843z"/>
                    <path fill="#96C7A2" d="M382.37 135.653l-.697-17.171 2.622-.537 5.727 16.36c.615 1.76.368 3.694-.673 5.254-1.227 1.839-3.378 2.9-5.637 2.78l-.03-.002-1.313-6.684z"/>
                    <path fill="#EAEAEA" d="M305.516 128.068c-10.59 17.732-25.061-2.024-35.214 3.058 0 0 .568-4.286 8.531-6.851l-5.454-1.146s14.423-11.067 30.956-1.306c6.637 3.918 1.181 6.245 1.181 6.245"/>
                    <path fill="#D9DADB" d="M305.18 126.683c-5.458 3.71-8.603-.945-12.957.878 0 0 1.27-1.428 3.7-1.558 0 0-3.003-2.324-12.006-2.216 0 0 14.195-4.002 20.893.771 7.566 5.391.37 2.125.37 2.125"/>
                    <path fill="#9CBFD8" d="M416.27 107.453c.21 1.205-.538 2.371-1.747 2.725-13.368 3.908-86.361 24.63-107.775 17.529l-.828-4.758c17.836-13.482 93.823-16.984 107.778-17.518 1.262-.048 2.363.818 2.572 2.022"/>
                    <path fill="#755858" d="M307.146 121.366L308.421 128.697 305.61 129.154 304.335 121.823z"/>
                    <path fill="#C5DBE8" d="M329.341 114.422L331.743 128.24 328.932 128.697 326.53 114.879z"/>
                    <path fill="#FFF" d="M278.581 130.993c-2.943-.857-5.745-1.136-8.28.133 0 0 .296-2.217 3.424-4.418 4.029-2.059 2.274.436 5.73-.567 3.453-1.003 2.975 4.135-.874 4.852M284.636 128.165c3.255-1.169 5.183.984 2.765 2.209-2.42 1.225-5.299-1.3-2.765-2.21"/>
                    <path fill="#B56983" d="M505.23 325.157h-72.07c-1.333-1.555-2.647-3.165-3.467-4.177.47-1.74 1.14-3.496 1.978-5.237l3.768 6.503-2.25-9.303c.684-1.143 1.44-2.271 2.27-3.373 2.462 5.478 6.297 13.977 6.157 13.447-.131-.482-2.114-9.71-3.578-16.557.96-1.053 1.983-2.065 3.064-3.035l1.75 5.678-.984-6.352c.655-.557 1.324-1.094 2.012-1.618l4.737 14.294-1.862-16.289c2.022-1.287 4.175-2.415 6.43-3.338l1.474 15.553 2.153-16.832c2.269-.675 4.625-1.143 7.045-1.363v15.38l3.088-15.531h.136c2.046 0 4.053.179 6.012.515-.281 4.584-.567 9.67-.45 9.394.101-.241 1.003-4.68 1.895-9.118 1.94.42 3.82.984 5.644 1.686l-2.943 22.406 5.595-21.278c1.469.695 2.895 1.473 4.257 2.326l-3.88 11.568 5.747-10.336c1.275.888 2.487 1.845 3.64 2.85l-1.216 3.901 2.148-3.07c.786.73 1.542 1.48 2.26 2.244-1.805 5.567-4.5 13.97-4.273 13.832.248-.151 4.355-7.04 6.701-10.99.912 1.163 1.746 2.36 2.498 3.579l-4.941 7.411 6.434-4.748c1.687 3.324 2.74 6.73 3.02 9.978"/>
                    <path fill="#EF869B" d="M451.594 325.157h-45.478c-.841-.981-1.67-1.998-2.188-2.636.297-1.098.72-2.206 1.249-3.305l2.377 4.104-1.42-5.87c.432-.722.91-1.434 1.432-2.129 1.554 3.457 3.975 8.82 3.886 8.486-.083-.304-1.334-6.128-2.258-10.448.606-.665 1.252-1.303 1.934-1.916l1.104 3.583-.621-4.008c.413-.352.835-.69 1.27-1.02l2.99 9.019-1.176-10.279c1.276-.812 2.635-1.524 4.057-2.106l.93 9.814 1.359-10.622c1.432-.425 2.919-.72 4.445-.86v9.706l1.95-9.801h.085c1.291 0 2.558.113 3.794.326-.177 2.892-.357 6.1-.284 5.927.064-.152.633-2.953 1.196-5.754 1.224.265 2.411.621 3.561 1.064l-1.857 14.14 3.53-13.428c.928.439 1.828.93 2.688 1.468l-2.448 7.3 3.625-6.523c.805.56 1.57 1.164 2.298 1.798l-.768 2.462 1.356-1.936c.495.46.973.933 1.425 1.415-1.138 3.513-2.839 8.816-2.695 8.729.156-.096 2.748-4.443 4.228-6.935.575.734 1.102 1.49 1.576 2.258l-3.118 4.677 4.06-2.996c1.065 2.097 1.73 4.247 1.906 6.296"/>
                    <path fill="#80B78C" d="M541.184 268.512h-27.603c-1.148 0-2.227-.53-2.905-1.426-1.74-2.3-.042-5.536 2.905-5.536h27.603c2.947 0 4.646 3.237 2.905 5.536-.678.897-1.757 1.426-2.905 1.426"/>
                    <mask id="a1jy4ge9yz" fill="#fff">
                        <use xlink:href="#tk9bl22x5y"/>
                    </mask>
                    <path fill="#5B5959" d="M524.749 320.381L527.031 320.381 527.031 270.55 524.749 270.55zM512.457 322.589L514.739 322.589 514.739 318.513 512.457 318.513zM537.04 322.589L539.323 322.589 539.323 318.513 537.04 318.513z" mask="url(#a1jy4ge9yz)"/>
                    <path fill="#5B5959" d="M513.686 320.381L538.094 320.381 538.094 318.513 513.686 318.513zM515.969 323.098c0 1.22-1.022 2.208-2.283 2.208s-2.283-.989-2.283-2.208c0-1.22 1.022-2.208 2.283-2.208 1.26 0 2.283.989 2.283 2.208M540.552 323.098c0 1.22-1.022 2.208-2.283 2.208-1.26 0-2.282-.989-2.282-2.208 0-1.22 1.022-2.208 2.282-2.208 1.261 0 2.283.989 2.283 2.208M522.29 278.701L529.489 278.701 529.489 269.531 522.29 269.531z" mask="url(#a1jy4ge9yz)"/>
                    <path fill="#689971" d="M542.835 270.55h-30.203c-.582 0-1.053-.456-1.053-1.02 0-.562.471-1.018 1.053-1.018h30.203c.582 0 1.054.456 1.054 1.019s-.472 1.019-1.054 1.019" mask="url(#a1jy4ge9yz)"/>
                    <path fill="#B3C4CE" d="M515.657 249.788c6.075 15.024 15.942 17.711 40.62 26.893l4.391-4.922-34.166-27.67-10.845 5.699z" mask="url(#a1jy4ge9yz)"/>
                    <path fill="#4F2F5B" d="M524.703 305.767l-3.224 2.646s5.634 7.286 8.973 7.236c0 0-4.593-5.687-4.13-8.502.463-2.815-1.619-1.38-1.619-1.38" mask="url(#a1jy4ge9yz)"/>
                    <path fill="#B3C4CE" d="M556.465 270.291s-11.686 11.025-13.885 14.217c-2.199 3.193-17.885 20.768-17.885 20.768l1.627 1.87 34.33-30.647c1.428-1.275 1.436-3.455.016-4.74l-4.203-1.468z" mask="url(#a1jy4ge9yz)"/>
                    <path fill="#CCD9E2" d="M513.078 246.84c0 16.588 16.924 18.069 39.69 29.372l5.228-4.085-29.146-30.25-15.772 4.964z" mask="url(#a1jy4ge9yz)"/>
                    <path fill="#4F2F5B" d="M549.256 320.546l-.86 4.004s9.076 2.396 11.677.37c0 0-7.238-1.754-8.662-4.249-1.425-2.494-2.155-.125-2.155-.125" mask="url(#a1jy4ge9yz)"/>
                    <path fill="#CCD9E2" d="M552.302 273.699s-2.76 15.627-2.464 19.452c.296 3.825-.9 27.013-.9 27.013l2.473.507 8.31-45.426c.172-.936-.19-1.89-.947-2.496l-.778-.622-5.694 1.572z" mask="url(#a1jy4ge9yz)"/>
                    <path fill="#876070" d="M546.13 223.952l-2.048 13.926s-2.556 17.327-5.92 17.425c-10.899.318-11.268.57-22.926-3.306l-.08-5.341-2.063 4.197c-2.163-.762-2.614-2.669-2.614-2.669l8.594-19.17 5.924-16.692c1.664-4.687 5.566-8.307 10.478-9.72l1.18-.339s2.735-.207 3.608.01c.103.025.286.112.53.244 3.89 2.111 6.181 6.2 5.942 10.508l-.605 10.927z" mask="url(#a1jy4ge9yz)"/>
                    <path fill="#775263" d="M545.088 231.037c-2.572-.361-7.316-2.804-10.767-12.267 0 0-3.219 15.742 9.846 18.528l.921-6.26z" mask="url(#a1jy4ge9yz)"/>
                    <path fill="#876070" d="M532.782 208.6c1.19-2.648 4.413-3.816 7.109-2.574 2.667 1.23 4.952 4.34 6.966 6.684 3.314 3.854 6.143 14.457 6.143 14.457l-7.076 5.808-11.381-10.251-2.189-6.98c-.739-2.355-.587-4.887.428-7.144" mask="url(#a1jy4ge9yz)"/>
                    <path fill="#FFCEBF" d="M576.661 229.886h2.96l1.497 1.604s.23 1.337 0 1.67c-.23.335-.749-.677-.749-.677s-3.052.227-4.722-.244c-1.67-.47 1.014-2.353 1.014-2.353" mask="url(#a1jy4ge9yz)"/>
                    <path fill="#FCF3F2" d="M575.706 229.715l.963-.085s.032 1.772-.898 2.853l-3.32-.232 3.255-2.536z" mask="url(#a1jy4ge9yz)"/>
                    <path fill="#876070" d="M575.996 229.608l-.395 2.977-23.042 2.386c-1.548.16-3.113-.08-4.534-.694-3.322-1.11-4.618-4.988-2.597-7.768l2.827-3.888 27.741 6.987z" mask="url(#a1jy4ge9yz)"/>
                    <path fill="#FFCEBF" d="M541.504 200.133l.473 3.467s.274 1.016-1.363 1.005c-1.172-.008-2.195-1.101-2.195-1.101l-.69-6.904.597-.68 3.178 4.213z" mask="url(#a1jy4ge9yz)"/>
                    <path fill="#E5A495" d="M538.193 200.963c1.587 1.705 3.614 1.023 3.614 1.023l-.096-1.839-3.958-2.519.44 3.335z" mask="url(#a1jy4ge9yz)"/>
                    <path fill="#FFCEBF" d="M546.262 191.658c2.352 4.31-.578 10.072-3.75 9.731 0 0-3.437-.34-4.522-4.267-1.016-3.682 1.828-5.6 2.24-5.726.411-.126 6.032.262 6.032.262" mask="url(#a1jy4ge9yz)"/>
                    <path fill="#FFCEBF" d="M546.83 196.106c.793.681.871 1.25-.05 1.605-.92.355-.655-1.009-.655-1.094 0-.085.705-.511.705-.511" mask="url(#a1jy4ge9yz)"/>
                    <path fill="#5A2868" d="M540.43 194.676l.328 1.244.646-3.394h5.255s1.669 0 1.933-2.3c.265-2.302-1.674-3.665-3.349-3.495-1.674.17-2.555 2.387-2.555 2.387s-3.173-.426-4.935 1.193c-1.457 1.338-2.115 3.408-1.322 5.624.793 2.216 1.586 3.75 1.586 3.75l1.423-3.068.99-1.94z" mask="url(#a1jy4ge9yz)"/>
                    <path fill="#FFCEBF" d="M540.721 195.546c-.21-1.485-1.143-1.486-1.565-.52-.42.965-.434 3.202.72 2.746 1.152-.455.845-2.226.845-2.226" mask="url(#a1jy4ge9yz)"/>
                    <path fill="#FFF" d="M505.579 325.734L508.247 325.734 508.247 242.651 505.579 242.651zM596.409 325.734L599.077 325.734 599.077 242.651 596.409 242.651z" mask="url(#a1jy4ge9yz)"/>
                    <path fill="#D6707C" d="M605.602 247.212l-107.364-.209c-1.156-.002-2.093-.908-2.094-2.027l-.005-6.063c-.001-1.123.94-2.034 2.102-2.031l107.364.208c1.156.002 2.092.909 2.093 2.027l.006 6.064c.001 1.123-.941 2.033-2.102 2.03" mask="url(#a1jy4ge9yz)"/>
                    <path fill="#FFF" d="M584.648 236.74l-1.791-.464c-.391-.101-.623-.49-.519-.868l6.958-25.141c.105-.378.506-.603.898-.502l1.79.464c.392.1.624.49.519.868l-6.958 25.14c-.104.379-.506.604-.897.502" mask="url(#a1jy4ge9yz)"/>
                    <path fill="#FFF" d="M584.422 234.555v1.793c0 .392-.328.709-.733.709h-26.912c-.405 0-.733-.317-.733-.709v-1.793c0-.392.328-.709.733-.709h26.912c.405 0 .733.317.733.709" mask="url(#a1jy4ge9yz)"/>
                    <path fill="#EFEFEF" d="M562.632 235.935L574.38 235.935 574.38 234.968 562.632 234.968z" mask="url(#a1jy4ge9yz)"/>
                    <path fill="#F29E5F" d="M587.42 217.043c-19.109-23.74 47.235-35.342 30.646-63.29-16.588-27.946-24.402 5.68-28.527 18.355-4.124 12.675-15.828 5.883-15.159 21.212.669 15.33 13.04 23.723 13.04 23.723" mask="url(#a1jy4ge9yz)"/>
                    <path fill="#EF9360" d="M584.422 162.1c5.657-10.898 16.407-22.042 2.999-29.501-13.409-7.46-15.38 2.65-12.321 14.887 3.059 12.236 9.322 14.614 9.322 14.614" mask="url(#a1jy4ge9yz)"/>
                    <path fill="#5A2868" d="M546.198 198.812c-1.555 4.015-1.753 3.9-3.844 3.68-2.09-.22-1.688-7.239-1.688-7.239l.281-.326s-.076 4.892 1.407 5.672c1.482.78 3.844-1.787 3.844-1.787" mask="url(#a1jy4ge9yz)"/>
                    <path fill="#ED7562" d="M570.35 132.675c-12.74-8.554-12.826-20.048-3.75-16.872 9.077 3.175 3.75 16.872 3.75 16.872" mask="url(#a1jy4ge9yz)"/>
                    <path fill="#F29E5F" d="M205.803 240.753c7.251 15.253 12.529 17.43 32.493 31.466l5.188-3.415-26.295-29.13-11.386 1.079z" mask="url(#a1jy4ge9yz)"/>
                    <path fill="#EF8F60" d="M224.84 262.831l-6.71-7.38s4.89-4.756 6.788-7.215l-4.267-5.228s-6.472 1.563-6.756 1.744c-.284.181-4.47 2.79-4.47 2.79l1.5 5.579 13.915 9.71z" mask="url(#a1jy4ge9yz)"/>
                    <path fill="#4F2F5B" d="M239.222 314.38l-.547 3.78s8.605 1.693 10.9-.347c0 0-6.853-1.205-8.339-3.444-1.485-2.24-2.014.011-2.014.011" mask="url(#a1jy4ge9yz)"/>
                    <path fill="#F29E5F" d="M237.69 270.15s-.184 15.133.334 18.679c.519 3.544.877 25.214.877 25.214l2.335.326 4.548-40.08c.138-1.213-.134-2.437-.775-3.488l-1.256-2.059-6.064 1.408zM199.594 235.436c-5.337 15.975-3.513 20.99 1.363 44.39l6.208.88 5.435-39.884-13.006-5.386z" mask="url(#a1jy4ge9yz)"/>
                    <path fill="#EF8F60" d="M196.354 252.304s7.667 3.107 14.474 1.524l.506-2.846h-14.98v1.322z" mask="url(#a1jy4ge9yz)"/>
                    <path fill="#4F2F5B" d="M191.462 322.596l-1.41 3.565s7.992 3.518 10.701 2.028c0 0-6.398-2.661-7.325-5.166-.928-2.505-1.966-.427-1.966-.427" mask="url(#a1jy4ge9yz)"/>
                    <path fill="#F29E5F" d="M200.996 279.774s-4.449 14.096-4.767 17.663c-.318 3.567-5.001 24.76-5.001 24.76l2.2.826 13.841-39.886-.07-3.366-6.203.003z" mask="url(#a1jy4ge9yz)"/>
                    <path fill="#876070" d="M193.108 210.68l.74 19.733s-3.616 16.67-2.315 19.435c.017.035 8.958 3.579 21.74 2.521l1.69-6.636 2.43 5.742c4.037 0 8.241-1.952 8.241-1.952l-4.036-19.11-.515-17.582-10.225-10.123-3.297-.662-3.033.881-11.42 7.754z" mask="url(#a1jy4ge9yz)"/>
                    <path fill="#FFCEBF" d="M240.71 209.005s.569-1.423.126-2.077c-.442-.654-.391-.999-.005-.818.385.18.798.748.798.748s1.187-2.123 1.555-2.145c.368-.022.03.585.03.585s.472-.757.745-.691c.272.065-.142.751-.142.751s.326-.369.468-.289c.133.075-.01.526-.255.848 0 0 .19-.342.429-.228.134.065-.054.435-.227.813-.455.994-.693 2.26-1.902 2.78l-.908 1.752-.712-2.029z" mask="url(#a1jy4ge9yz)"/>
                    <path fill="#876070" d="M210.858 202.632s7.755 4.032 10.656 6.313c3.754 2.952 10.633 13.281 10.633 13.281l-8.867 6.642-7.989-13.662-4.433-6.046v-6.528z" mask="url(#a1jy4ge9yz)"/>
                    <path fill="#876070" d="M215.268 214.307s-3.526-5.861-8.228-9.488c-3.783-2.917-12.414-11.025-12.414-11.025l-6.687 8.708 15.045 23.804 5.581-12.193 6.703.194z" mask="url(#a1jy4ge9yz)"/>
                    <path fill="#F8E8CF" d="M214.307 204.492l-3.977 7.462-6.961-10.207 4.775-.284 2.714 1.245.145-.35s1.366 1.06 3.304 2.134" mask="url(#a1jy4ge9yz)"/>
                    <path fill="#FFCEBF" d="M211.92 200.8l-1.151 3.144s-.91 1.058-1.694.525c-.915-.623-1.287-2.097-1.287-2.097l2.507-6.16.812-.327.814 4.914z" mask="url(#a1jy4ge9yz)"/>
                    <path fill="#E5A495" d="M209.264 198.595c-.02 3.089 1.95 4.131 1.95 4.131l.876-1.829-2.236-3.8-.59 1.498z" mask="url(#a1jy4ge9yz)"/>
                    <path fill="#FFCEBF" d="M219.538 195.659c.068 4.65-3.725 9.234-8.33 5.96 0 0-2.64-1.441-1.151-4.781 1.49-3.34 4.063-3.995 4.47-3.93.406.066 5.011 2.751 5.011 2.751" mask="url(#a1jy4ge9yz)"/>
                    <path fill="#4F2F5B" d="M214.02 193.854s4.202 2.49 6.166 1.835c1.965-.656 1.762-3.538.204-4.783-1.559-1.245-4.608-.852-4.404.59 0 0-3.93-.983-5.895 1.113-1.964 2.097-.847 6.257-.847 6.257l.813-2.03 1.06-1.778.126.893 2.778-2.097z" mask="url(#a1jy4ge9yz)"/>
                    <path fill="#FFCEBF" d="M211.286 195.485c.024-1.43-.857-1.561-1.398-.71-.542.851-.89 2.96.266 2.691 1.156-.268 1.132-1.98 1.132-1.98" mask="url(#a1jy4ge9yz)"/>
                    <path fill="#FCF3F2" d="M240.377 209.257l.307-.82s1.562.677 2.137 1.867l-1.521 2.62-.923-3.667z" mask="url(#a1jy4ge9yz)"/>
                    <path fill="#876070" d="M227.497 222.746l12.901-13.768 2.444 1.505-6.62 18.527c-.707 1.978-2.585 3.344-4.746 3.452l-2.927.146c-1.047.052-2.063-.351-2.771-1.099l-2.498-2.64 4.217-6.123z" mask="url(#a1jy4ge9yz)"/>
                    <path fill="#C14D4D" d="M225.629 231.517L221.037 221.154 221.377 225.76 223.248 228.886z" mask="url(#a1jy4ge9yz)"/>
                    <path fill="#FFCEBF" d="M184.103 173.338s-.212-1.512.375-2.049c.587-.537.62-.884.202-.795-.419.09-.956.55-.956.55s-.646-2.332-.999-2.436c-.352-.104-.17.562-.17.562s-.277-.841-.558-.839c-.28.002-.042.763-.042.763s-.23-.432-.387-.387c-.146.043-.116.514.046.882 0 0-.104-.374-.363-.317-.146.033-.052.435.026.841.204 1.07.132 2.355 1.184 3.13l.463 1.91 1.179-1.815z" mask="url(#a1jy4ge9yz)"/>
                    <path fill="#FCF3F2" d="M184.367 173.658l-.103-.867s-1.68.31-2.525 1.337l.851 2.89 1.777-3.36z" mask="url(#a1jy4ge9yz)"/>
                    <path fill="#876070" d="M184.413 173.381l-2.738.916 2.134 20.818c.144 1.398.668 2.735 1.52 3.874l2.61 3.49 8.36-5.912-11.886-23.186z" mask="url(#a1jy4ge9yz)"/>
                    <path fill="#4F2F5B" d="M211.579 215.786c0 .35-.293.633-.655.633-.361 0-.654-.283-.654-.633 0-.35.293-.632.654-.632.362 0 .655.283.655.632M214.523 242.678c0 .35-.293.633-.654.633-.362 0-.655-.283-.655-.633 0-.35.293-.633.655-.633.36 0 .654.284.654.633M213.214 235.085c0 .35-.293.633-.654.633-.361 0-.654-.283-.654-.633 0-.35.293-.633.654-.633.361 0 .654.283.654.633M211.579 225.12c0 .349-.293.632-.655.632-.361 0-.654-.283-.654-.633 0-.35.293-.633.654-.633.362 0 .655.284.655.633" mask="url(#a1jy4ge9yz)"/>
                </g>
            </g>
        </g>
    </g>
</svg>
