<svg xmlns="http://www.w3.org/2000/svg" width="17" height="18" viewBox="0 0 17 18">
    <g fill="none" fill-rule="evenodd">
        <g fill="#000" fill-rule="nonzero">
            <path d="M287.76 48.44c.267 0 .4-.133.4-.4v-6.96c0-.107.053-.16.16-.16h7.16c.267 0 .4-.133.4-.4v-.56c0-.267-.133-.4-.4-.4h-7.16c-.107 0-.16-.053-.16-.16v-7.32c0-.267-.133-.4-.4-.4h-.56c-.267 0-.4.133-.4.4v7.32c0 .107-.053.16-.16.16h-7.12c-.267 0-.4.133-.4.4v.56c0 .267.133.4.4.4h7.12c.107 0 .16.053.16.16v6.96c0 .267.133.4.4.4h.56z" transform="translate(-279.000000, -31.000000)"/>
        </g>
    </g>
</svg>
