<svg xmlns="http://www.w3.org/2000/svg" width="86" height="28" viewBox="0 0 86 28">
    <g fill="none" fill-rule="evenodd">
        <g fill="#231F20">
            <path d="M38 27c7.732 0 14 6.268 14 14s-6.268 14-14 14-14-6.268-14-14 6.268-14 14-14zm.417 20.239h-.06c-.21 0-1.083.015-1.787.37-.217.109-.44.264-.634.426-.217.193-.317.317-.395.433-.464.642-.48 1.361-.48 1.624 0 .812.24 1.284.434 1.578.155.247.325.417.402.495.124.108.232.193.371.286.387.247 1.021.549 2.104.549.317 0 1.895 0 2.784-1.044.108-.132.209-.27.387-.588l-.82-.17c-.093.162-.17.278-.302.418-.573.627-1.465.695-1.837.703h-.235c-.127-.003-.323-.01-.51-.038-.233-.039-1.037-.186-1.524-.82-.41-.534-.433-1.152-.433-1.377 0-.773.294-1.206.502-1.43.132-.147.248-.24.31-.279.634-.448 1.477-.456 1.693-.456.774 0 1.323.232 1.578.394.178.109.364.279.487.449.054.077.1.155.147.24l.828-.178c-.07-.124-.201-.364-.449-.627-.232-.24-.456-.386-.564-.456-.737-.447-1.668-.497-1.997-.502zM101.52 34c.66 0 3.28.06 5.32 1.3.28.18.86.56 1.46 1.18.64.68.98 1.3 1.16 1.62l-2.14.46c-.12-.22-.24-.42-.38-.62-.32-.44-.8-.88-1.26-1.16-.66-.42-2.08-1.02-4.08-1.02-.56 0-2.74.02-4.38 1.18-.16.1-.46.34-.8.72-.54.58-1.3 1.7-1.3 3.7 0 .58.06 2.18 1.12 3.56 1.26 1.64 3.34 2.02 3.94 2.12.567.083 1.161.097 1.47.1h.305c.846-.006 3.337-.103 4.905-1.82.34-.36.54-.66.78-1.08l2.12.44c-.46.82-.72 1.18-1 1.52-2.182 2.562-5.966 2.693-7.049 2.7h-.151c-2.8 0-4.44-.78-5.44-1.42-.36-.24-.64-.46-.96-.74-.2-.2-.64-.64-1.04-1.28-.5-.76-1.12-1.98-1.12-4.08 0-.68.04-2.54 1.24-4.2.2-.3.46-.62 1.02-1.12.5-.42 1.08-.82 1.64-1.1 1.82-.92 4.08-.96 4.62-.96zm-18.42.08c.8 0 2.72.06 4.72 1.1 1.02.52 1.58 1.06 1.9 1.42.32.34.46.5.84 1.2l-1.96.6c-.14-.2-.34-.54-.76-.94-.68-.62-2.2-1.66-4.6-1.66-.44 0-1.54.04-2.7.44-2.3.8-3.74 2.64-3.74 5.12 0 1.26.46 2.7 1.28 3.68 1.66 2.02 4.36 2.14 5.1 2.14 1.96 0 4.16-.84 5.22-2.58.38-.64.46-1.12.56-1.82h-6.22V41.1h7.9v7.44H88.9V46.6c-.3.3-.6.58-.94.82-.8.56-2.64 1.44-5.22 1.44-3.8 0-5.84-1.96-6.7-3.14-.48-.64-1.38-2.12-1.38-4.28 0-.68.1-2.34 1.16-3.94.28-.42.56-.76.92-1.1.96-.9 3.02-2.32 6.36-2.32zm-16.64.34l7.24 14.12h-2.32l-1.72-3.48h-8.68l-1.72 3.48H57l7.32-14.12h2.14zm-28.135 4.149c-1.291 0-2.088.549-2.459.897-.139.132-.247.263-.356.425-.41.62-.448 1.261-.448 1.524 0 .835.348 1.407.533 1.655.333.456 1.122 1.214 2.591 1.214.998 0 1.71-.34 2.019-.557.131-.093.247-.2.363-.317v.75h.673v-2.877h-3.055v.65h2.405c-.038.27-.07.456-.216.704-.41.673-1.26.997-2.019.997-.286 0-1.33-.046-1.972-.827-.317-.379-.495-.936-.495-1.423 0-.959.557-1.67 1.447-1.98.448-.155.873-.17 1.044-.17.928 0 1.515.402 1.778.642.163.155.24.286.294.363l.758-.232c-.147-.27-.2-.332-.325-.464-.123-.139-.34-.348-.734-.549-.774-.402-1.516-.425-1.826-.425zM65.34 36.44l-3.52 7h6.98l-3.46-7zM38.658 30h-.827L35 35.46h.874l.665-1.346h3.356l.666 1.346h.897l-2.8-5.46zm-.433.781l1.338 2.707h-2.7l1.362-2.707z" transform="translate(-24.000000, -27.000000)"/>
        </g>
    </g>
</svg>
