<svg xmlns="http://www.w3.org/2000/svg" xmlns:xlink="http://www.w3.org/1999/xlink" width="18" height="19" viewBox="0 0 18 19">
    <defs>
        <filter id="1rksb9440a" color-interpolation-filters="auto">
            <feColorMatrix in="SourceGraphic" values="0 0 0 0 1.000000 0 0 0 0 1.000000 0 0 0 0 1.000000 0 0 0 1.000000 0"/>
        </filter>
        <path id="fgal9s5q1b" d="M0 0.008L17.976 0.008 17.976 9 0 9z"/>
    </defs>
    <g fill="none" fill-rule="evenodd">
        <g filter="url(#1rksb9440a)" transform="translate(-215.000000, -31.000000)">
            <g>
                <path fill="#ffffff" d="M12.968 5c0 2.12-1.67 3.857-3.764 3.963-.068.004-.136.005-.204.005-.068 0-.136-.001-.204-.005C6.702 8.857 5.032 7.12 5.032 5s1.67-3.857 3.764-3.963c.068-.004.136-.005.204-.005.068 0 .136.001.204.005 2.094.106 3.764 1.843 3.764 3.963M9 10c2.757 0 5-2.243 5-5s-2.243-5-5-5-5 2.243-5 5 2.243 5 5 5" transform="translate(215.000000, 31.000000)"/>
                <g transform="translate(215.000000, 31.000000) translate(0.000000, 10.000000)">
                    <mask id="v590idl5wc" fill="#fff">
                        <use xlink:href="#fgal9s5q1b"/>
                    </mask>
                    <path fill="#ffffff" d="M1.047 3.793c0-1.518 1.25-2.752 2.788-2.752H14.14c1.538 0 2.79 1.234 2.79 2.752v4.174H1.046V3.793zM14.14.008H3.835C1.721.008 0 1.706 0 3.793v4.69C0 8.768.235 9 .523 9h16.93c.288 0 .523-.232.523-.517v-4.69c0-2.087-1.72-3.785-3.836-3.785z" mask="url(#v590idl5wc)"/>
                </g>
            </g>
        </g>
    </g>
</svg>
