<svg xmlns="http://www.w3.org/2000/svg" xmlns:xlink="http://www.w3.org/1999/xlink" width="91" height="95" viewBox="0 0 91 95">
    <defs>
        <path id="blfhq11i0a" d="M0 0L18 0 18 24 0 24z"/>
        <path id="2nyfxnbcsc" d="M0 0L57 0 57 67 0 67z"/>
    </defs>
    <g fill="none" fill-rule="evenodd">
        <g>
            <g>
                <g>
                    <g transform="translate(-39.000000, -735.000000) translate(39.993427, 735.406826) translate(-0.000000, 0.000000) translate(11.006573, -0.406826)">
                        <mask id="40uvawjufb" fill="#fff">
                            <use xlink:href="#blfhq11i0a"/>
                        </mask>
                        <path fill="#1A1A1A" d="M9.003 2.658c-3.54 0-6.412 2.96-6.412 6.583v5.509c0 3.63 2.872 6.589 6.412 6.589 3.534 0 6.41-2.96 6.41-6.589V9.241c0-3.624-2.876-6.583-6.41-6.583m0 21.342C4.037 24 0 19.849 0 14.75V9.241C0 4.143 4.037-.003 9.003-.003 13.963-.003 18 4.143 18 9.24v5.509C18 19.849 13.963 24 9.003 24" mask="url(#40uvawjufb)"/>
                    </g>
                    <g transform="translate(-39.000000, -735.000000) translate(39.993427, 735.406826) translate(-0.000000, 0.000000) translate(0.006573, 26.593174)">
                        <mask id="emtjjr69kd" fill="#fff">
                            <use xlink:href="#2nyfxnbcsc"/>
                        </mask>
                        <path fill="#1A1A1A" d="M11.139 64.318h17.749V11.997c0-.354.138-.697.388-.95.25-.246.59-.39.941-.39l14.882.005c6.191 0 8.292-5.304 8.962-7.98H15.543c-7.106 0-12.887 5.83-12.887 12.994v15.998c.042.466.547 4.982 5.829 5.636V16.877c0-.734.59-1.34 1.324-1.34.74 0 1.33.606 1.33 1.34v47.441zM30.217 67H9.81c-.734 0-1.324-.595-1.324-1.34V40.002C2.198 39.39.177 34.457.002 31.765l-.006-16.089C-.004 7.031 6.974 0 15.543 0h40.124c.378 0 .74.166.995.45.25.285.372.666.33 1.04-.463 4.104-3.537 11.848-11.893 11.848H31.547v52.321c0 .746-.59 1.341-1.33 1.341z" mask="url(#emtjjr69kd)"/>
                    </g>
                    <path fill="#1A1A1A" d="M20.007 93.593c-.834 0-1.5-.607-1.5-1.368V62.962c0-.75.666-1.369 1.5-1.369.828 0 1.5.619 1.5 1.369v29.263c0 .76-.672 1.368-1.5 1.368M87.657 59.593H39.661c-.74 0-1.35-.602-1.35-1.355 0-.748.61-1.355 1.35-1.355h46.647v-42.58H33.356c-.745 0-1.35-.612-1.35-1.355 0-.748.605-1.355 1.35-1.355h54.301c.75 0 1.35.607 1.35 1.355v45.29c0 .753-.6 1.355-1.35 1.355" transform="translate(-39.000000, -735.000000) translate(39.993427, 735.406826) translate(-0.000000, 0.000000)"/>
                </g>
                <path fill="#EC5151" d="M72.007 16.593H84.007V54.593H72.007z" transform="translate(-39.000000, -735.000000) translate(39.993427, 735.406826)"/>
            </g>
        </g>
    </g>
</svg>
