<svg xmlns="http://www.w3.org/2000/svg" xmlns:xlink="http://www.w3.org/1999/xlink" width="44" height="80" viewBox="0 0 44 80">
    <defs>
        <path id="fv5iaiyr0a" d="M0 0L43 0 43 59 0 59z"/>
        <path id="1mkb9q4xzc" d="M0 0L21 0 21 22 0 22z"/>
    </defs>
    <g fill="none" fill-rule="evenodd">
        <g>
            <g>
                <g>
                    <g transform="translate(-51.000000, -3753.000000) translate(51.324593, 3753.813653) translate(0.000000, -0.000000) translate(-0.324593, 20.186347)">
                        <mask id="5n70n7wwvb" fill="#fff">
                            <use xlink:href="#fv5iaiyr0a"/>
                        </mask>
                        <path fill="#1A1A1A" d="M14.937 2.699C8.2 2.699 2.715 8.151 2.715 14.842v29.316c0 6.696 5.485 12.143 12.222 12.143h13.125c6.737 0 12.223-5.447 12.223-12.143V14.842c0-6.69-5.486-12.143-12.223-12.143H14.937zM28.062 59H14.937C6.698 59-.001 52.342-.001 44.158V14.842C0 6.658 6.7 0 14.937 0h13.125C36.296 0 43 6.658 43 14.842v29.316C43 52.342 36.296 59 28.062 59z" mask="url(#5n70n7wwvb)"/>
                    </g>
                    <path fill="#1A1A1A" d="M21.675 42.186c-.828 0-1.5-.642-1.5-1.44V30.632c0-.804.672-1.447 1.5-1.447s1.5.643 1.5 1.447v10.112c0 .799-.672 1.441-1.5 1.441" transform="translate(-51.000000, -3753.000000) translate(51.324593, 3753.813653) translate(0.000000, -0.000000)"/>
                    <g transform="translate(-51.000000, -3753.000000) translate(51.324593, 3753.813653) translate(0.000000, -0.000000) translate(1.675407, 0.186347)">
                        <mask id="pta0tqk8sd" fill="#fff">
                            <use xlink:href="#1mkb9q4xzc"/>
                        </mask>
                        <path fill="#1A1A1A" d="M19.647 22c-.746 0-1.352-.608-1.352-1.358V8.13c0-2.993-2.42-5.422-5.4-5.422H1.352C.606 2.71 0 2.106 0 1.351 0 .607.606-.002 1.353-.002h11.541C17.364-.002 21 3.65 21 8.131v12.51c0 .75-.606 1.359-1.353 1.359" mask="url(#pta0tqk8sd)"/>
                    </g>
                </g>
                <path fill="#EC5151" d="M15.675 28.186H26.675V43.186H15.675z" transform="translate(-51.000000, -3753.000000) translate(51.324593, 3753.813653)"/>
            </g>
        </g>
    </g>
</svg>
